<?xml version="1.0" encoding="utf-8" standalone="no"?>
<!DOCTYPE svg PUBLIC "-//W3C//DTD SVG 1.1//EN"
  "http://www.w3.org/Graphics/SVG/1.1/DTD/svg11.dtd">
<svg xmlns:xlink="http://www.w3.org/1999/xlink" width="612.165625pt" height="378.509875pt" viewBox="0 0 612.165625 378.509875" xmlns="http://www.w3.org/2000/svg" version="1.1">
 <metadata>
  <rdf:RDF xmlns:dc="http://purl.org/dc/elements/1.1/" xmlns:cc="http://creativecommons.org/ns#" xmlns:rdf="http://www.w3.org/1999/02/22-rdf-syntax-ns#">
   <cc:Work>
    <dc:type rdf:resource="http://purl.org/dc/dcmitype/StillImage"/>
    <dc:date>2026-06-12T18:56:19.452121</dc:date>
    <dc:format>image/svg+xml</dc:format>
    <dc:creator>
     <cc:Agent>
      <dc:title>Matplotlib v3.10.0, https://matplotlib.org/</dc:title>
     </cc:Agent>
    </dc:creator>
   </cc:Work>
  </rdf:RDF>
 </metadata>
 <defs>
  <style type="text/css">*{stroke-linejoin: round; stroke-linecap: butt}</style>
 </defs>
 <g id="figure_1">
  <g id="patch_1">
   <path d="M 0 378.509875 
L 612.165625 378.509875 
L 612.165625 0 
L 0 0 
z
" style="fill: #ffffff"/>
  </g>
  <g id="axes_1">
   <g id="patch_2">
    <path d="M 46.965625 340.6755 
L 604.965625 340.6755 
L 604.965625 35.7555 
L 46.965625 35.7555 
z
" style="fill: #ffffff"/>
   </g>
   <g id="patch_3">
    <path d="M 72.329261 340.6755 
L 325.285635 340.6755 
L 325.285635 35.7555 
L 72.329261 35.7555 
z
" clip-path="url(#pa8acb85e8b)" style="fill: #9ecae1; opacity: 0.15; stroke: #9ecae1; stroke-linejoin: miter"/>
   </g>
   <g id="patch_4">
    <path d="M 325.285635 340.6755 
L 357.925167 340.6755 
L 357.925167 35.7555 
L 325.285635 35.7555 
z
" clip-path="url(#pa8acb85e8b)" style="fill: #bdbdbd; opacity: 0.12; stroke: #bdbdbd; stroke-linejoin: miter"/>
   </g>
   <g id="patch_5">
    <path d="M 357.925167 340.6755 
L 579.601989 340.6755 
L 579.601989 35.7555 
L 357.925167 35.7555 
z
" clip-path="url(#pa8acb85e8b)" style="fill: #fdae6b; opacity: 0.18; stroke: #fdae6b; stroke-linejoin: miter"/>
   </g>
   <g id="matplotlib.axis_1">
    <g id="xtick_1">
     <g id="line2d_1">
      <path d="M 62.809398 340.6755 
L 62.809398 35.7555 
" clip-path="url(#pa8acb85e8b)" style="fill: none; stroke: #b0b0b0; stroke-opacity: 0.3; stroke-width: 0.8; stroke-linecap: square"/>
     </g>
     <g id="line2d_2">
      <defs>
       <path id="m2d535d6418" d="M 0 0 
L 0 3.5 
" style="stroke: #000000; stroke-width: 0.8"/>
      </defs>
      <g>
       <use xlink:href="#m2d535d6418" x="62.809398" y="340.6755" style="stroke: #000000; stroke-width: 0.8"/>
      </g>
     </g>
     <g id="text_1">
      <!-- 0.400 -->
      <g transform="translate(48.495335 355.273938) scale(0.1 -0.1)">
       <defs>
        <path id="DejaVuSans-30" d="M 2034 4250 
Q 1547 4250 1301 3770 
Q 1056 3291 1056 2328 
Q 1056 1369 1301 889 
Q 1547 409 2034 409 
Q 2525 409 2770 889 
Q 3016 1369 3016 2328 
Q 3016 3291 2770 3770 
Q 2525 4250 2034 4250 
z
M 2034 4750 
Q 2819 4750 3233 4129 
Q 3647 3509 3647 2328 
Q 3647 1150 3233 529 
Q 2819 -91 2034 -91 
Q 1250 -91 836 529 
Q 422 1150 422 2328 
Q 422 3509 836 4129 
Q 1250 4750 2034 4750 
z
" transform="scale(0.015625)"/>
        <path id="DejaVuSans-2e" d="M 684 794 
L 1344 794 
L 1344 0 
L 684 0 
L 684 794 
z
" transform="scale(0.015625)"/>
        <path id="DejaVuSans-34" d="M 2419 4116 
L 825 1625 
L 2419 1625 
L 2419 4116 
z
M 2253 4666 
L 3047 4666 
L 3047 1625 
L 3713 1625 
L 3713 1100 
L 3047 1100 
L 3047 0 
L 2419 0 
L 2419 1100 
L 313 1100 
L 313 1709 
L 2253 4666 
z
" transform="scale(0.015625)"/>
       </defs>
       <use xlink:href="#DejaVuSans-30"/>
       <use xlink:href="#DejaVuSans-2e" transform="translate(63.623047 0)"/>
       <use xlink:href="#DejaVuSans-34" transform="translate(95.410156 0)"/>
       <use xlink:href="#DejaVuSans-30" transform="translate(159.033203 0)"/>
       <use xlink:href="#DejaVuSans-30" transform="translate(222.65625 0)"/>
      </g>
     </g>
    </g>
    <g id="xtick_2">
     <g id="line2d_3">
      <path d="M 130.808423 340.6755 
L 130.808423 35.7555 
" clip-path="url(#pa8acb85e8b)" style="fill: none; stroke: #b0b0b0; stroke-opacity: 0.3; stroke-width: 0.8; stroke-linecap: square"/>
     </g>
     <g id="line2d_4">
      <g>
       <use xlink:href="#m2d535d6418" x="130.808423" y="340.6755" style="stroke: #000000; stroke-width: 0.8"/>
      </g>
     </g>
     <g id="text_2">
      <!-- 0.405 -->
      <g transform="translate(116.49436 355.273938) scale(0.1 -0.1)">
       <defs>
        <path id="DejaVuSans-35" d="M 691 4666 
L 3169 4666 
L 3169 4134 
L 1269 4134 
L 1269 2991 
Q 1406 3038 1543 3061 
Q 1681 3084 1819 3084 
Q 2600 3084 3056 2656 
Q 3513 2228 3513 1497 
Q 3513 744 3044 326 
Q 2575 -91 1722 -91 
Q 1428 -91 1123 -41 
Q 819 9 494 109 
L 494 744 
Q 775 591 1075 516 
Q 1375 441 1709 441 
Q 2250 441 2565 725 
Q 2881 1009 2881 1497 
Q 2881 1984 2565 2268 
Q 2250 2553 1709 2553 
Q 1456 2553 1204 2497 
Q 953 2441 691 2322 
L 691 4666 
z
" transform="scale(0.015625)"/>
       </defs>
       <use xlink:href="#DejaVuSans-30"/>
       <use xlink:href="#DejaVuSans-2e" transform="translate(63.623047 0)"/>
       <use xlink:href="#DejaVuSans-34" transform="translate(95.410156 0)"/>
       <use xlink:href="#DejaVuSans-30" transform="translate(159.033203 0)"/>
       <use xlink:href="#DejaVuSans-35" transform="translate(222.65625 0)"/>
      </g>
     </g>
    </g>
    <g id="xtick_3">
     <g id="line2d_5">
      <path d="M 198.807448 340.6755 
L 198.807448 35.7555 
" clip-path="url(#pa8acb85e8b)" style="fill: none; stroke: #b0b0b0; stroke-opacity: 0.3; stroke-width: 0.8; stroke-linecap: square"/>
     </g>
     <g id="line2d_6">
      <g>
       <use xlink:href="#m2d535d6418" x="198.807448" y="340.6755" style="stroke: #000000; stroke-width: 0.8"/>
      </g>
     </g>
     <g id="text_3">
      <!-- 0.410 -->
      <g transform="translate(184.493386 355.273938) scale(0.1 -0.1)">
       <defs>
        <path id="DejaVuSans-31" d="M 794 531 
L 1825 531 
L 1825 4091 
L 703 3866 
L 703 4441 
L 1819 4666 
L 2450 4666 
L 2450 531 
L 3481 531 
L 3481 0 
L 794 0 
L 794 531 
z
" transform="scale(0.015625)"/>
       </defs>
       <use xlink:href="#DejaVuSans-30"/>
       <use xlink:href="#DejaVuSans-2e" transform="translate(63.623047 0)"/>
       <use xlink:href="#DejaVuSans-34" transform="translate(95.410156 0)"/>
       <use xlink:href="#DejaVuSans-31" transform="translate(159.033203 0)"/>
       <use xlink:href="#DejaVuSans-30" transform="translate(222.65625 0)"/>
      </g>
     </g>
    </g>
    <g id="xtick_4">
     <g id="line2d_7">
      <path d="M 266.806473 340.6755 
L 266.806473 35.7555 
" clip-path="url(#pa8acb85e8b)" style="fill: none; stroke: #b0b0b0; stroke-opacity: 0.3; stroke-width: 0.8; stroke-linecap: square"/>
     </g>
     <g id="line2d_8">
      <g>
       <use xlink:href="#m2d535d6418" x="266.806473" y="340.6755" style="stroke: #000000; stroke-width: 0.8"/>
      </g>
     </g>
     <g id="text_4">
      <!-- 0.415 -->
      <g transform="translate(252.492411 355.273938) scale(0.1 -0.1)">
       <use xlink:href="#DejaVuSans-30"/>
       <use xlink:href="#DejaVuSans-2e" transform="translate(63.623047 0)"/>
       <use xlink:href="#DejaVuSans-34" transform="translate(95.410156 0)"/>
       <use xlink:href="#DejaVuSans-31" transform="translate(159.033203 0)"/>
       <use xlink:href="#DejaVuSans-35" transform="translate(222.65625 0)"/>
      </g>
     </g>
    </g>
    <g id="xtick_5">
     <g id="line2d_9">
      <path d="M 334.805498 340.6755 
L 334.805498 35.7555 
" clip-path="url(#pa8acb85e8b)" style="fill: none; stroke: #b0b0b0; stroke-opacity: 0.3; stroke-width: 0.8; stroke-linecap: square"/>
     </g>
     <g id="line2d_10">
      <g>
       <use xlink:href="#m2d535d6418" x="334.805498" y="340.6755" style="stroke: #000000; stroke-width: 0.8"/>
      </g>
     </g>
     <g id="text_5">
      <!-- 0.420 -->
      <g transform="translate(320.491436 355.273938) scale(0.1 -0.1)">
       <defs>
        <path id="DejaVuSans-32" d="M 1228 531 
L 3431 531 
L 3431 0 
L 469 0 
L 469 531 
Q 828 903 1448 1529 
Q 2069 2156 2228 2338 
Q 2531 2678 2651 2914 
Q 2772 3150 2772 3378 
Q 2772 3750 2511 3984 
Q 2250 4219 1831 4219 
Q 1534 4219 1204 4116 
Q 875 4013 500 3803 
L 500 4441 
Q 881 4594 1212 4672 
Q 1544 4750 1819 4750 
Q 2544 4750 2975 4387 
Q 3406 4025 3406 3419 
Q 3406 3131 3298 2873 
Q 3191 2616 2906 2266 
Q 2828 2175 2409 1742 
Q 1991 1309 1228 531 
z
" transform="scale(0.015625)"/>
       </defs>
       <use xlink:href="#DejaVuSans-30"/>
       <use xlink:href="#DejaVuSans-2e" transform="translate(63.623047 0)"/>
       <use xlink:href="#DejaVuSans-34" transform="translate(95.410156 0)"/>
       <use xlink:href="#DejaVuSans-32" transform="translate(159.033203 0)"/>
       <use xlink:href="#DejaVuSans-30" transform="translate(222.65625 0)"/>
      </g>
     </g>
    </g>
    <g id="xtick_6">
     <g id="line2d_11">
      <path d="M 402.804523 340.6755 
L 402.804523 35.7555 
" clip-path="url(#pa8acb85e8b)" style="fill: none; stroke: #b0b0b0; stroke-opacity: 0.3; stroke-width: 0.8; stroke-linecap: square"/>
     </g>
     <g id="line2d_12">
      <g>
       <use xlink:href="#m2d535d6418" x="402.804523" y="340.6755" style="stroke: #000000; stroke-width: 0.8"/>
      </g>
     </g>
     <g id="text_6">
      <!-- 0.425 -->
      <g transform="translate(388.490461 355.273938) scale(0.1 -0.1)">
       <use xlink:href="#DejaVuSans-30"/>
       <use xlink:href="#DejaVuSans-2e" transform="translate(63.623047 0)"/>
       <use xlink:href="#DejaVuSans-34" transform="translate(95.410156 0)"/>
       <use xlink:href="#DejaVuSans-32" transform="translate(159.033203 0)"/>
       <use xlink:href="#DejaVuSans-35" transform="translate(222.65625 0)"/>
      </g>
     </g>
    </g>
    <g id="xtick_7">
     <g id="line2d_13">
      <path d="M 470.803548 340.6755 
L 470.803548 35.7555 
" clip-path="url(#pa8acb85e8b)" style="fill: none; stroke: #b0b0b0; stroke-opacity: 0.3; stroke-width: 0.8; stroke-linecap: square"/>
     </g>
     <g id="line2d_14">
      <g>
       <use xlink:href="#m2d535d6418" x="470.803548" y="340.6755" style="stroke: #000000; stroke-width: 0.8"/>
      </g>
     </g>
     <g id="text_7">
      <!-- 0.430 -->
      <g transform="translate(456.489486 355.273938) scale(0.1 -0.1)">
       <defs>
        <path id="DejaVuSans-33" d="M 2597 2516 
Q 3050 2419 3304 2112 
Q 3559 1806 3559 1356 
Q 3559 666 3084 287 
Q 2609 -91 1734 -91 
Q 1441 -91 1130 -33 
Q 819 25 488 141 
L 488 750 
Q 750 597 1062 519 
Q 1375 441 1716 441 
Q 2309 441 2620 675 
Q 2931 909 2931 1356 
Q 2931 1769 2642 2001 
Q 2353 2234 1838 2234 
L 1294 2234 
L 1294 2753 
L 1863 2753 
Q 2328 2753 2575 2939 
Q 2822 3125 2822 3475 
Q 2822 3834 2567 4026 
Q 2313 4219 1838 4219 
Q 1578 4219 1281 4162 
Q 984 4106 628 3988 
L 628 4550 
Q 988 4650 1302 4700 
Q 1616 4750 1894 4750 
Q 2613 4750 3031 4423 
Q 3450 4097 3450 3541 
Q 3450 3153 3228 2886 
Q 3006 2619 2597 2516 
z
" transform="scale(0.015625)"/>
       </defs>
       <use xlink:href="#DejaVuSans-30"/>
       <use xlink:href="#DejaVuSans-2e" transform="translate(63.623047 0)"/>
       <use xlink:href="#DejaVuSans-34" transform="translate(95.410156 0)"/>
       <use xlink:href="#DejaVuSans-33" transform="translate(159.033203 0)"/>
       <use xlink:href="#DejaVuSans-30" transform="translate(222.65625 0)"/>
      </g>
     </g>
    </g>
    <g id="xtick_8">
     <g id="line2d_15">
      <path d="M 538.802574 340.6755 
L 538.802574 35.7555 
" clip-path="url(#pa8acb85e8b)" style="fill: none; stroke: #b0b0b0; stroke-opacity: 0.3; stroke-width: 0.8; stroke-linecap: square"/>
     </g>
     <g id="line2d_16">
      <g>
       <use xlink:href="#m2d535d6418" x="538.802574" y="340.6755" style="stroke: #000000; stroke-width: 0.8"/>
      </g>
     </g>
     <g id="text_8">
      <!-- 0.435 -->
      <g transform="translate(524.488511 355.273938) scale(0.1 -0.1)">
       <use xlink:href="#DejaVuSans-30"/>
       <use xlink:href="#DejaVuSans-2e" transform="translate(63.623047 0)"/>
       <use xlink:href="#DejaVuSans-34" transform="translate(95.410156 0)"/>
       <use xlink:href="#DejaVuSans-33" transform="translate(159.033203 0)"/>
       <use xlink:href="#DejaVuSans-35" transform="translate(222.65625 0)"/>
      </g>
     </g>
    </g>
    <g id="text_9">
     <!-- QPM ambivalence  (= 1 − purity_proxy,  bounded [0, 0.5]) -->
     <g transform="translate(180.011719 368.952063) scale(0.1 -0.1)">
      <defs>
       <path id="DejaVuSans-51" d="M 2522 4238 
Q 1834 4238 1429 3725 
Q 1025 3213 1025 2328 
Q 1025 1447 1429 934 
Q 1834 422 2522 422 
Q 3209 422 3611 934 
Q 4013 1447 4013 2328 
Q 4013 3213 3611 3725 
Q 3209 4238 2522 4238 
z
M 3406 84 
L 4238 -825 
L 3475 -825 
L 2784 -78 
Q 2681 -84 2626 -87 
Q 2572 -91 2522 -91 
Q 1538 -91 948 567 
Q 359 1225 359 2328 
Q 359 3434 948 4092 
Q 1538 4750 2522 4750 
Q 3503 4750 4090 4092 
Q 4678 3434 4678 2328 
Q 4678 1516 4351 937 
Q 4025 359 3406 84 
z
" transform="scale(0.015625)"/>
       <path id="DejaVuSans-50" d="M 1259 4147 
L 1259 2394 
L 2053 2394 
Q 2494 2394 2734 2622 
Q 2975 2850 2975 3272 
Q 2975 3691 2734 3919 
Q 2494 4147 2053 4147 
L 1259 4147 
z
M 628 4666 
L 2053 4666 
Q 2838 4666 3239 4311 
Q 3641 3956 3641 3272 
Q 3641 2581 3239 2228 
Q 2838 1875 2053 1875 
L 1259 1875 
L 1259 0 
L 628 0 
L 628 4666 
z
" transform="scale(0.015625)"/>
       <path id="DejaVuSans-4d" d="M 628 4666 
L 1569 4666 
L 2759 1491 
L 3956 4666 
L 4897 4666 
L 4897 0 
L 4281 0 
L 4281 4097 
L 3078 897 
L 2444 897 
L 1241 4097 
L 1241 0 
L 628 0 
L 628 4666 
z
" transform="scale(0.015625)"/>
       <path id="DejaVuSans-20" transform="scale(0.015625)"/>
       <path id="DejaVuSans-61" d="M 2194 1759 
Q 1497 1759 1228 1600 
Q 959 1441 959 1056 
Q 959 750 1161 570 
Q 1363 391 1709 391 
Q 2188 391 2477 730 
Q 2766 1069 2766 1631 
L 2766 1759 
L 2194 1759 
z
M 3341 1997 
L 3341 0 
L 2766 0 
L 2766 531 
Q 2569 213 2275 61 
Q 1981 -91 1556 -91 
Q 1019 -91 701 211 
Q 384 513 384 1019 
Q 384 1609 779 1909 
Q 1175 2209 1959 2209 
L 2766 2209 
L 2766 2266 
Q 2766 2663 2505 2880 
Q 2244 3097 1772 3097 
Q 1472 3097 1187 3025 
Q 903 2953 641 2809 
L 641 3341 
Q 956 3463 1253 3523 
Q 1550 3584 1831 3584 
Q 2591 3584 2966 3190 
Q 3341 2797 3341 1997 
z
" transform="scale(0.015625)"/>
       <path id="DejaVuSans-6d" d="M 3328 2828 
Q 3544 3216 3844 3400 
Q 4144 3584 4550 3584 
Q 5097 3584 5394 3201 
Q 5691 2819 5691 2113 
L 5691 0 
L 5113 0 
L 5113 2094 
Q 5113 2597 4934 2840 
Q 4756 3084 4391 3084 
Q 3944 3084 3684 2787 
Q 3425 2491 3425 1978 
L 3425 0 
L 2847 0 
L 2847 2094 
Q 2847 2600 2669 2842 
Q 2491 3084 2119 3084 
Q 1678 3084 1418 2786 
Q 1159 2488 1159 1978 
L 1159 0 
L 581 0 
L 581 3500 
L 1159 3500 
L 1159 2956 
Q 1356 3278 1631 3431 
Q 1906 3584 2284 3584 
Q 2666 3584 2933 3390 
Q 3200 3197 3328 2828 
z
" transform="scale(0.015625)"/>
       <path id="DejaVuSans-62" d="M 3116 1747 
Q 3116 2381 2855 2742 
Q 2594 3103 2138 3103 
Q 1681 3103 1420 2742 
Q 1159 2381 1159 1747 
Q 1159 1113 1420 752 
Q 1681 391 2138 391 
Q 2594 391 2855 752 
Q 3116 1113 3116 1747 
z
M 1159 2969 
Q 1341 3281 1617 3432 
Q 1894 3584 2278 3584 
Q 2916 3584 3314 3078 
Q 3713 2572 3713 1747 
Q 3713 922 3314 415 
Q 2916 -91 2278 -91 
Q 1894 -91 1617 61 
Q 1341 213 1159 525 
L 1159 0 
L 581 0 
L 581 4863 
L 1159 4863 
L 1159 2969 
z
" transform="scale(0.015625)"/>
       <path id="DejaVuSans-69" d="M 603 3500 
L 1178 3500 
L 1178 0 
L 603 0 
L 603 3500 
z
M 603 4863 
L 1178 4863 
L 1178 4134 
L 603 4134 
L 603 4863 
z
" transform="scale(0.015625)"/>
       <path id="DejaVuSans-76" d="M 191 3500 
L 800 3500 
L 1894 563 
L 2988 3500 
L 3597 3500 
L 2284 0 
L 1503 0 
L 191 3500 
z
" transform="scale(0.015625)"/>
       <path id="DejaVuSans-6c" d="M 603 4863 
L 1178 4863 
L 1178 0 
L 603 0 
L 603 4863 
z
" transform="scale(0.015625)"/>
       <path id="DejaVuSans-65" d="M 3597 1894 
L 3597 1613 
L 953 1613 
Q 991 1019 1311 708 
Q 1631 397 2203 397 
Q 2534 397 2845 478 
Q 3156 559 3463 722 
L 3463 178 
Q 3153 47 2828 -22 
Q 2503 -91 2169 -91 
Q 1331 -91 842 396 
Q 353 884 353 1716 
Q 353 2575 817 3079 
Q 1281 3584 2069 3584 
Q 2775 3584 3186 3129 
Q 3597 2675 3597 1894 
z
M 3022 2063 
Q 3016 2534 2758 2815 
Q 2500 3097 2075 3097 
Q 1594 3097 1305 2825 
Q 1016 2553 972 2059 
L 3022 2063 
z
" transform="scale(0.015625)"/>
       <path id="DejaVuSans-6e" d="M 3513 2113 
L 3513 0 
L 2938 0 
L 2938 2094 
Q 2938 2591 2744 2837 
Q 2550 3084 2163 3084 
Q 1697 3084 1428 2787 
Q 1159 2491 1159 1978 
L 1159 0 
L 581 0 
L 581 3500 
L 1159 3500 
L 1159 2956 
Q 1366 3272 1645 3428 
Q 1925 3584 2291 3584 
Q 2894 3584 3203 3211 
Q 3513 2838 3513 2113 
z
" transform="scale(0.015625)"/>
       <path id="DejaVuSans-63" d="M 3122 3366 
L 3122 2828 
Q 2878 2963 2633 3030 
Q 2388 3097 2138 3097 
Q 1578 3097 1268 2742 
Q 959 2388 959 1747 
Q 959 1106 1268 751 
Q 1578 397 2138 397 
Q 2388 397 2633 464 
Q 2878 531 3122 666 
L 3122 134 
Q 2881 22 2623 -34 
Q 2366 -91 2075 -91 
Q 1284 -91 818 406 
Q 353 903 353 1747 
Q 353 2603 823 3093 
Q 1294 3584 2113 3584 
Q 2378 3584 2631 3529 
Q 2884 3475 3122 3366 
z
" transform="scale(0.015625)"/>
       <path id="DejaVuSans-28" d="M 1984 4856 
Q 1566 4138 1362 3434 
Q 1159 2731 1159 2009 
Q 1159 1288 1364 580 
Q 1569 -128 1984 -844 
L 1484 -844 
Q 1016 -109 783 600 
Q 550 1309 550 2009 
Q 550 2706 781 3412 
Q 1013 4119 1484 4856 
L 1984 4856 
z
" transform="scale(0.015625)"/>
       <path id="DejaVuSans-3d" d="M 678 2906 
L 4684 2906 
L 4684 2381 
L 678 2381 
L 678 2906 
z
M 678 1631 
L 4684 1631 
L 4684 1100 
L 678 1100 
L 678 1631 
z
" transform="scale(0.015625)"/>
       <path id="DejaVuSans-2212" d="M 678 2272 
L 4684 2272 
L 4684 1741 
L 678 1741 
L 678 2272 
z
" transform="scale(0.015625)"/>
       <path id="DejaVuSans-70" d="M 1159 525 
L 1159 -1331 
L 581 -1331 
L 581 3500 
L 1159 3500 
L 1159 2969 
Q 1341 3281 1617 3432 
Q 1894 3584 2278 3584 
Q 2916 3584 3314 3078 
Q 3713 2572 3713 1747 
Q 3713 922 3314 415 
Q 2916 -91 2278 -91 
Q 1894 -91 1617 61 
Q 1341 213 1159 525 
z
M 3116 1747 
Q 3116 2381 2855 2742 
Q 2594 3103 2138 3103 
Q 1681 3103 1420 2742 
Q 1159 2381 1159 1747 
Q 1159 1113 1420 752 
Q 1681 391 2138 391 
Q 2594 391 2855 752 
Q 3116 1113 3116 1747 
z
" transform="scale(0.015625)"/>
       <path id="DejaVuSans-75" d="M 544 1381 
L 544 3500 
L 1119 3500 
L 1119 1403 
Q 1119 906 1312 657 
Q 1506 409 1894 409 
Q 2359 409 2629 706 
Q 2900 1003 2900 1516 
L 2900 3500 
L 3475 3500 
L 3475 0 
L 2900 0 
L 2900 538 
Q 2691 219 2414 64 
Q 2138 -91 1772 -91 
Q 1169 -91 856 284 
Q 544 659 544 1381 
z
M 1991 3584 
L 1991 3584 
z
" transform="scale(0.015625)"/>
       <path id="DejaVuSans-72" d="M 2631 2963 
Q 2534 3019 2420 3045 
Q 2306 3072 2169 3072 
Q 1681 3072 1420 2755 
Q 1159 2438 1159 1844 
L 1159 0 
L 581 0 
L 581 3500 
L 1159 3500 
L 1159 2956 
Q 1341 3275 1631 3429 
Q 1922 3584 2338 3584 
Q 2397 3584 2469 3576 
Q 2541 3569 2628 3553 
L 2631 2963 
z
" transform="scale(0.015625)"/>
       <path id="DejaVuSans-74" d="M 1172 4494 
L 1172 3500 
L 2356 3500 
L 2356 3053 
L 1172 3053 
L 1172 1153 
Q 1172 725 1289 603 
Q 1406 481 1766 481 
L 2356 481 
L 2356 0 
L 1766 0 
Q 1100 0 847 248 
Q 594 497 594 1153 
L 594 3053 
L 172 3053 
L 172 3500 
L 594 3500 
L 594 4494 
L 1172 4494 
z
" transform="scale(0.015625)"/>
       <path id="DejaVuSans-79" d="M 2059 -325 
Q 1816 -950 1584 -1140 
Q 1353 -1331 966 -1331 
L 506 -1331 
L 506 -850 
L 844 -850 
Q 1081 -850 1212 -737 
Q 1344 -625 1503 -206 
L 1606 56 
L 191 3500 
L 800 3500 
L 1894 763 
L 2988 3500 
L 3597 3500 
L 2059 -325 
z
" transform="scale(0.015625)"/>
       <path id="DejaVuSans-5f" d="M 3263 -1063 
L 3263 -1509 
L -63 -1509 
L -63 -1063 
L 3263 -1063 
z
" transform="scale(0.015625)"/>
       <path id="DejaVuSans-6f" d="M 1959 3097 
Q 1497 3097 1228 2736 
Q 959 2375 959 1747 
Q 959 1119 1226 758 
Q 1494 397 1959 397 
Q 2419 397 2687 759 
Q 2956 1122 2956 1747 
Q 2956 2369 2687 2733 
Q 2419 3097 1959 3097 
z
M 1959 3584 
Q 2709 3584 3137 3096 
Q 3566 2609 3566 1747 
Q 3566 888 3137 398 
Q 2709 -91 1959 -91 
Q 1206 -91 779 398 
Q 353 888 353 1747 
Q 353 2609 779 3096 
Q 1206 3584 1959 3584 
z
" transform="scale(0.015625)"/>
       <path id="DejaVuSans-78" d="M 3513 3500 
L 2247 1797 
L 3578 0 
L 2900 0 
L 1881 1375 
L 863 0 
L 184 0 
L 1544 1831 
L 300 3500 
L 978 3500 
L 1906 2253 
L 2834 3500 
L 3513 3500 
z
" transform="scale(0.015625)"/>
       <path id="DejaVuSans-2c" d="M 750 794 
L 1409 794 
L 1409 256 
L 897 -744 
L 494 -744 
L 750 256 
L 750 794 
z
" transform="scale(0.015625)"/>
       <path id="DejaVuSans-64" d="M 2906 2969 
L 2906 4863 
L 3481 4863 
L 3481 0 
L 2906 0 
L 2906 525 
Q 2725 213 2448 61 
Q 2172 -91 1784 -91 
Q 1150 -91 751 415 
Q 353 922 353 1747 
Q 353 2572 751 3078 
Q 1150 3584 1784 3584 
Q 2172 3584 2448 3432 
Q 2725 3281 2906 2969 
z
M 947 1747 
Q 947 1113 1208 752 
Q 1469 391 1925 391 
Q 2381 391 2643 752 
Q 2906 1113 2906 1747 
Q 2906 2381 2643 2742 
Q 2381 3103 1925 3103 
Q 1469 3103 1208 2742 
Q 947 2381 947 1747 
z
" transform="scale(0.015625)"/>
       <path id="DejaVuSans-5b" d="M 550 4863 
L 1875 4863 
L 1875 4416 
L 1125 4416 
L 1125 -397 
L 1875 -397 
L 1875 -844 
L 550 -844 
L 550 4863 
z
" transform="scale(0.015625)"/>
       <path id="DejaVuSans-5d" d="M 1947 4863 
L 1947 -844 
L 622 -844 
L 622 -397 
L 1369 -397 
L 1369 4416 
L 622 4416 
L 622 4863 
L 1947 4863 
z
" transform="scale(0.015625)"/>
       <path id="DejaVuSans-29" d="M 513 4856 
L 1013 4856 
Q 1481 4119 1714 3412 
Q 1947 2706 1947 2009 
Q 1947 1309 1714 600 
Q 1481 -109 1013 -844 
L 513 -844 
Q 928 -128 1133 580 
Q 1338 1288 1338 2009 
Q 1338 2731 1133 3434 
Q 928 4138 513 4856 
z
" transform="scale(0.015625)"/>
      </defs>
      <use xlink:href="#DejaVuSans-51"/>
      <use xlink:href="#DejaVuSans-50" transform="translate(78.710938 0)"/>
      <use xlink:href="#DejaVuSans-4d" transform="translate(139.013672 0)"/>
      <use xlink:href="#DejaVuSans-20" transform="translate(225.292969 0)"/>
      <use xlink:href="#DejaVuSans-61" transform="translate(257.080078 0)"/>
      <use xlink:href="#DejaVuSans-6d" transform="translate(318.359375 0)"/>
      <use xlink:href="#DejaVuSans-62" transform="translate(415.771484 0)"/>
      <use xlink:href="#DejaVuSans-69" transform="translate(479.248047 0)"/>
      <use xlink:href="#DejaVuSans-76" transform="translate(507.03125 0)"/>
      <use xlink:href="#DejaVuSans-61" transform="translate(566.210938 0)"/>
      <use xlink:href="#DejaVuSans-6c" transform="translate(627.490234 0)"/>
      <use xlink:href="#DejaVuSans-65" transform="translate(655.273438 0)"/>
      <use xlink:href="#DejaVuSans-6e" transform="translate(716.796875 0)"/>
      <use xlink:href="#DejaVuSans-63" transform="translate(780.175781 0)"/>
      <use xlink:href="#DejaVuSans-65" transform="translate(835.15625 0)"/>
      <use xlink:href="#DejaVuSans-20" transform="translate(896.679688 0)"/>
      <use xlink:href="#DejaVuSans-20" transform="translate(928.466797 0)"/>
      <use xlink:href="#DejaVuSans-28" transform="translate(960.253906 0)"/>
      <use xlink:href="#DejaVuSans-3d" transform="translate(999.267578 0)"/>
      <use xlink:href="#DejaVuSans-20" transform="translate(1083.056641 0)"/>
      <use xlink:href="#DejaVuSans-31" transform="translate(1114.84375 0)"/>
      <use xlink:href="#DejaVuSans-20" transform="translate(1178.466797 0)"/>
      <use xlink:href="#DejaVuSans-2212" transform="translate(1210.253906 0)"/>
      <use xlink:href="#DejaVuSans-20" transform="translate(1294.042969 0)"/>
      <use xlink:href="#DejaVuSans-70" transform="translate(1325.830078 0)"/>
      <use xlink:href="#DejaVuSans-75" transform="translate(1389.306641 0)"/>
      <use xlink:href="#DejaVuSans-72" transform="translate(1452.685547 0)"/>
      <use xlink:href="#DejaVuSans-69" transform="translate(1493.798828 0)"/>
      <use xlink:href="#DejaVuSans-74" transform="translate(1521.582031 0)"/>
      <use xlink:href="#DejaVuSans-79" transform="translate(1560.791016 0)"/>
      <use xlink:href="#DejaVuSans-5f" transform="translate(1619.970703 0)"/>
      <use xlink:href="#DejaVuSans-70" transform="translate(1669.970703 0)"/>
      <use xlink:href="#DejaVuSans-72" transform="translate(1733.447266 0)"/>
      <use xlink:href="#DejaVuSans-6f" transform="translate(1772.310547 0)"/>
      <use xlink:href="#DejaVuSans-78" transform="translate(1830.367188 0)"/>
      <use xlink:href="#DejaVuSans-79" transform="translate(1889.546875 0)"/>
      <use xlink:href="#DejaVuSans-2c" transform="translate(1948.726562 0)"/>
      <use xlink:href="#DejaVuSans-20" transform="translate(1980.513672 0)"/>
      <use xlink:href="#DejaVuSans-20" transform="translate(2012.300781 0)"/>
      <use xlink:href="#DejaVuSans-62" transform="translate(2044.087891 0)"/>
      <use xlink:href="#DejaVuSans-6f" transform="translate(2107.564453 0)"/>
      <use xlink:href="#DejaVuSans-75" transform="translate(2168.746094 0)"/>
      <use xlink:href="#DejaVuSans-6e" transform="translate(2232.125 0)"/>
      <use xlink:href="#DejaVuSans-64" transform="translate(2295.503906 0)"/>
      <use xlink:href="#DejaVuSans-65" transform="translate(2358.980469 0)"/>
      <use xlink:href="#DejaVuSans-64" transform="translate(2420.503906 0)"/>
      <use xlink:href="#DejaVuSans-20" transform="translate(2483.980469 0)"/>
      <use xlink:href="#DejaVuSans-5b" transform="translate(2515.767578 0)"/>
      <use xlink:href="#DejaVuSans-30" transform="translate(2554.78125 0)"/>
      <use xlink:href="#DejaVuSans-2c" transform="translate(2618.404297 0)"/>
      <use xlink:href="#DejaVuSans-20" transform="translate(2650.191406 0)"/>
      <use xlink:href="#DejaVuSans-30" transform="translate(2681.978516 0)"/>
      <use xlink:href="#DejaVuSans-2e" transform="translate(2745.601562 0)"/>
      <use xlink:href="#DejaVuSans-35" transform="translate(2777.388672 0)"/>
      <use xlink:href="#DejaVuSans-5d" transform="translate(2841.011719 0)"/>
      <use xlink:href="#DejaVuSans-29" transform="translate(2880.025391 0)"/>
     </g>
    </g>
   </g>
   <g id="matplotlib.axis_2">
    <g id="ytick_1">
     <g id="line2d_17">
      <path d="M 46.965625 340.6755 
L 604.965625 340.6755 
" clip-path="url(#pa8acb85e8b)" style="fill: none; stroke: #b0b0b0; stroke-opacity: 0.3; stroke-width: 0.8; stroke-linecap: square"/>
     </g>
     <g id="line2d_18">
      <defs>
       <path id="me55853a745" d="M 0 0 
L -3.5 0 
" style="stroke: #000000; stroke-width: 0.8"/>
      </defs>
      <g>
       <use xlink:href="#me55853a745" x="46.965625" y="340.6755" style="stroke: #000000; stroke-width: 0.8"/>
      </g>
     </g>
     <g id="text_10">
      <!-- 0 -->
      <g transform="translate(33.603125 344.474719) scale(0.1 -0.1)">
       <use xlink:href="#DejaVuSans-30"/>
      </g>
     </g>
    </g>
    <g id="ytick_2">
     <g id="line2d_19">
      <path d="M 46.965625 294.002405 
L 604.965625 294.002405 
" clip-path="url(#pa8acb85e8b)" style="fill: none; stroke: #b0b0b0; stroke-opacity: 0.3; stroke-width: 0.8; stroke-linecap: square"/>
     </g>
     <g id="line2d_20">
      <g>
       <use xlink:href="#me55853a745" x="46.965625" y="294.002405" style="stroke: #000000; stroke-width: 0.8"/>
      </g>
     </g>
     <g id="text_11">
      <!-- 20 -->
      <g transform="translate(27.240625 297.801623) scale(0.1 -0.1)">
       <use xlink:href="#DejaVuSans-32"/>
       <use xlink:href="#DejaVuSans-30" transform="translate(63.623047 0)"/>
      </g>
     </g>
    </g>
    <g id="ytick_3">
     <g id="line2d_21">
      <path d="M 46.965625 247.329309 
L 604.965625 247.329309 
" clip-path="url(#pa8acb85e8b)" style="fill: none; stroke: #b0b0b0; stroke-opacity: 0.3; stroke-width: 0.8; stroke-linecap: square"/>
     </g>
     <g id="line2d_22">
      <g>
       <use xlink:href="#me55853a745" x="46.965625" y="247.329309" style="stroke: #000000; stroke-width: 0.8"/>
      </g>
     </g>
     <g id="text_12">
      <!-- 40 -->
      <g transform="translate(27.240625 251.128528) scale(0.1 -0.1)">
       <use xlink:href="#DejaVuSans-34"/>
       <use xlink:href="#DejaVuSans-30" transform="translate(63.623047 0)"/>
      </g>
     </g>
    </g>
    <g id="ytick_4">
     <g id="line2d_23">
      <path d="M 46.965625 200.656214 
L 604.965625 200.656214 
" clip-path="url(#pa8acb85e8b)" style="fill: none; stroke: #b0b0b0; stroke-opacity: 0.3; stroke-width: 0.8; stroke-linecap: square"/>
     </g>
     <g id="line2d_24">
      <g>
       <use xlink:href="#me55853a745" x="46.965625" y="200.656214" style="stroke: #000000; stroke-width: 0.8"/>
      </g>
     </g>
     <g id="text_13">
      <!-- 60 -->
      <g transform="translate(27.240625 204.455432) scale(0.1 -0.1)">
       <defs>
        <path id="DejaVuSans-36" d="M 2113 2584 
Q 1688 2584 1439 2293 
Q 1191 2003 1191 1497 
Q 1191 994 1439 701 
Q 1688 409 2113 409 
Q 2538 409 2786 701 
Q 3034 994 3034 1497 
Q 3034 2003 2786 2293 
Q 2538 2584 2113 2584 
z
M 3366 4563 
L 3366 3988 
Q 3128 4100 2886 4159 
Q 2644 4219 2406 4219 
Q 1781 4219 1451 3797 
Q 1122 3375 1075 2522 
Q 1259 2794 1537 2939 
Q 1816 3084 2150 3084 
Q 2853 3084 3261 2657 
Q 3669 2231 3669 1497 
Q 3669 778 3244 343 
Q 2819 -91 2113 -91 
Q 1303 -91 875 529 
Q 447 1150 447 2328 
Q 447 3434 972 4092 
Q 1497 4750 2381 4750 
Q 2619 4750 2861 4703 
Q 3103 4656 3366 4563 
z
" transform="scale(0.015625)"/>
       </defs>
       <use xlink:href="#DejaVuSans-36"/>
       <use xlink:href="#DejaVuSans-30" transform="translate(63.623047 0)"/>
      </g>
     </g>
    </g>
    <g id="ytick_5">
     <g id="line2d_25">
      <path d="M 46.965625 153.983118 
L 604.965625 153.983118 
" clip-path="url(#pa8acb85e8b)" style="fill: none; stroke: #b0b0b0; stroke-opacity: 0.3; stroke-width: 0.8; stroke-linecap: square"/>
     </g>
     <g id="line2d_26">
      <g>
       <use xlink:href="#me55853a745" x="46.965625" y="153.983118" style="stroke: #000000; stroke-width: 0.8"/>
      </g>
     </g>
     <g id="text_14">
      <!-- 80 -->
      <g transform="translate(27.240625 157.782337) scale(0.1 -0.1)">
       <defs>
        <path id="DejaVuSans-38" d="M 2034 2216 
Q 1584 2216 1326 1975 
Q 1069 1734 1069 1313 
Q 1069 891 1326 650 
Q 1584 409 2034 409 
Q 2484 409 2743 651 
Q 3003 894 3003 1313 
Q 3003 1734 2745 1975 
Q 2488 2216 2034 2216 
z
M 1403 2484 
Q 997 2584 770 2862 
Q 544 3141 544 3541 
Q 544 4100 942 4425 
Q 1341 4750 2034 4750 
Q 2731 4750 3128 4425 
Q 3525 4100 3525 3541 
Q 3525 3141 3298 2862 
Q 3072 2584 2669 2484 
Q 3125 2378 3379 2068 
Q 3634 1759 3634 1313 
Q 3634 634 3220 271 
Q 2806 -91 2034 -91 
Q 1263 -91 848 271 
Q 434 634 434 1313 
Q 434 1759 690 2068 
Q 947 2378 1403 2484 
z
M 1172 3481 
Q 1172 3119 1398 2916 
Q 1625 2713 2034 2713 
Q 2441 2713 2670 2916 
Q 2900 3119 2900 3481 
Q 2900 3844 2670 4047 
Q 2441 4250 2034 4250 
Q 1625 4250 1398 4047 
Q 1172 3844 1172 3481 
z
" transform="scale(0.015625)"/>
       </defs>
       <use xlink:href="#DejaVuSans-38"/>
       <use xlink:href="#DejaVuSans-30" transform="translate(63.623047 0)"/>
      </g>
     </g>
    </g>
    <g id="ytick_6">
     <g id="line2d_27">
      <path d="M 46.965625 107.310023 
L 604.965625 107.310023 
" clip-path="url(#pa8acb85e8b)" style="fill: none; stroke: #b0b0b0; stroke-opacity: 0.3; stroke-width: 0.8; stroke-linecap: square"/>
     </g>
     <g id="line2d_28">
      <g>
       <use xlink:href="#me55853a745" x="46.965625" y="107.310023" style="stroke: #000000; stroke-width: 0.8"/>
      </g>
     </g>
     <g id="text_15">
      <!-- 100 -->
      <g transform="translate(20.878125 111.109241) scale(0.1 -0.1)">
       <use xlink:href="#DejaVuSans-31"/>
       <use xlink:href="#DejaVuSans-30" transform="translate(63.623047 0)"/>
       <use xlink:href="#DejaVuSans-30" transform="translate(127.246094 0)"/>
      </g>
     </g>
    </g>
    <g id="ytick_7">
     <g id="line2d_29">
      <path d="M 46.965625 60.636927 
L 604.965625 60.636927 
" clip-path="url(#pa8acb85e8b)" style="fill: none; stroke: #b0b0b0; stroke-opacity: 0.3; stroke-width: 0.8; stroke-linecap: square"/>
     </g>
     <g id="line2d_30">
      <g>
       <use xlink:href="#me55853a745" x="46.965625" y="60.636927" style="stroke: #000000; stroke-width: 0.8"/>
      </g>
     </g>
     <g id="text_16">
      <!-- 120 -->
      <g transform="translate(20.878125 64.436146) scale(0.1 -0.1)">
       <use xlink:href="#DejaVuSans-31"/>
       <use xlink:href="#DejaVuSans-32" transform="translate(63.623047 0)"/>
       <use xlink:href="#DejaVuSans-30" transform="translate(127.246094 0)"/>
      </g>
     </g>
    </g>
    <g id="text_17">
     <!-- Turns -->
     <g transform="translate(14.798438 201.423313) rotate(-90) scale(0.1 -0.1)">
      <defs>
       <path id="DejaVuSans-54" d="M -19 4666 
L 3928 4666 
L 3928 4134 
L 2272 4134 
L 2272 0 
L 1638 0 
L 1638 4134 
L -19 4134 
L -19 4666 
z
" transform="scale(0.015625)"/>
       <path id="DejaVuSans-73" d="M 2834 3397 
L 2834 2853 
Q 2591 2978 2328 3040 
Q 2066 3103 1784 3103 
Q 1356 3103 1142 2972 
Q 928 2841 928 2578 
Q 928 2378 1081 2264 
Q 1234 2150 1697 2047 
L 1894 2003 
Q 2506 1872 2764 1633 
Q 3022 1394 3022 966 
Q 3022 478 2636 193 
Q 2250 -91 1575 -91 
Q 1294 -91 989 -36 
Q 684 19 347 128 
L 347 722 
Q 666 556 975 473 
Q 1284 391 1588 391 
Q 1994 391 2212 530 
Q 2431 669 2431 922 
Q 2431 1156 2273 1281 
Q 2116 1406 1581 1522 
L 1381 1569 
Q 847 1681 609 1914 
Q 372 2147 372 2553 
Q 372 3047 722 3315 
Q 1072 3584 1716 3584 
Q 2034 3584 2315 3537 
Q 2597 3491 2834 3397 
z
" transform="scale(0.015625)"/>
      </defs>
      <use xlink:href="#DejaVuSans-54"/>
      <use xlink:href="#DejaVuSans-75" transform="translate(45.958984 0)"/>
      <use xlink:href="#DejaVuSans-72" transform="translate(109.337891 0)"/>
      <use xlink:href="#DejaVuSans-6e" transform="translate(148.701172 0)"/>
      <use xlink:href="#DejaVuSans-73" transform="translate(212.080078 0)"/>
     </g>
    </g>
   </g>
   <g id="patch_6">
    <path d="M 72.329261 340.6755 
L 72.329261 340.6755 
L 82.474716 340.6755 
L 82.474716 340.6755 
L 92.62017 340.6755 
L 92.62017 340.6755 
L 102.765625 340.6755 
L 102.765625 340.6755 
L 112.91108 340.6755 
L 112.91108 340.6755 
L 123.056534 340.6755 
L 123.056534 340.6755 
L 133.201989 340.6755 
L 133.201989 340.6755 
L 143.347443 340.6755 
L 143.347443 340.6755 
L 153.492898 340.6755 
L 153.492898 340.6755 
L 163.638352 340.6755 
L 163.638352 340.6755 
L 173.783807 340.6755 
L 173.783807 336.00819 
L 183.929261 336.00819 
L 183.929261 333.674536 
L 194.074716 333.674536 
L 194.074716 322.006262 
L 204.22017 322.006262 
L 204.22017 324.339917 
L 214.365625 324.339917 
L 214.365625 324.339917 
L 224.51108 324.339917 
L 224.51108 305.670678 
L 234.656534 305.670678 
L 234.656534 310.337988 
L 244.801989 310.337988 
L 244.801989 282.334131 
L 254.947443 282.334131 
L 254.947443 277.666821 
L 265.092898 277.666821 
L 265.092898 214.658142 
L 275.238352 214.658142 
L 275.238352 214.658142 
L 285.383807 214.658142 
L 285.383807 179.653321 
L 295.529261 179.653321 
L 295.529261 188.98794 
L 305.674716 188.98794 
L 305.674716 149.315809 
L 315.82017 149.315809 
L 315.82017 193.655249 
L 325.965625 193.655249 
L 325.965625 174.986011 
L 336.11108 174.986011 
L 336.11108 102.642713 
L 346.256534 102.642713 
L 346.256534 135.31388 
L 356.401989 135.31388 
L 356.401989 128.312916 
L 366.547443 128.312916 
L 366.547443 186.654285 
L 376.692898 186.654285 
L 376.692898 195.988904 
L 386.838352 195.988904 
L 386.838352 223.992761 
L 396.983807 223.992761 
L 396.983807 228.660071 
L 407.129261 228.660071 
L 407.129261 244.995654 
L 417.274716 244.995654 
L 417.274716 284.667785 
L 427.42017 284.667785 
L 427.42017 298.669714 
L 437.565625 298.669714 
L 437.565625 296.336059 
L 447.71108 296.336059 
L 447.71108 315.005297 
L 457.856534 315.005297 
L 457.856534 317.338952 
L 468.001989 317.338952 
L 468.001989 338.341845 
L 478.147443 338.341845 
L 478.147443 336.00819 
L 488.292898 336.00819 
L 488.292898 336.00819 
L 498.438352 336.00819 
L 498.438352 340.6755 
L 508.583807 340.6755 
L 508.583807 340.6755 
L 518.729261 340.6755 
L 518.729261 340.6755 
L 528.874716 340.6755 
L 528.874716 340.6755 
L 539.02017 340.6755 
L 539.02017 340.6755 
L 549.165625 340.6755 
L 549.165625 340.6755 
L 559.31108 340.6755 
L 559.31108 340.6755 
L 569.456534 340.6755 
L 569.456534 340.6755 
L 579.601989 340.6755 
L 579.601989 340.6755 
" clip-path="url(#pa8acb85e8b)" style="fill: none; stroke: #1f77b4; stroke-width: 2; stroke-linejoin: miter"/>
   </g>
   <g id="patch_7">
    <path d="M 72.329261 340.6755 
L 72.329261 340.6755 
L 82.474716 340.6755 
L 82.474716 340.6755 
L 92.62017 340.6755 
L 92.62017 340.6755 
L 102.765625 340.6755 
L 102.765625 340.6755 
L 112.91108 340.6755 
L 112.91108 340.6755 
L 123.056534 340.6755 
L 123.056534 340.6755 
L 133.201989 340.6755 
L 133.201989 338.341845 
L 143.347443 338.341845 
L 143.347443 340.6755 
L 153.492898 340.6755 
L 153.492898 331.340881 
L 163.638352 331.340881 
L 163.638352 340.6755 
L 173.783807 340.6755 
L 173.783807 333.674536 
L 183.929261 333.674536 
L 183.929261 329.007226 
L 194.074716 329.007226 
L 194.074716 336.00819 
L 204.22017 336.00819 
L 204.22017 338.341845 
L 214.365625 338.341845 
L 214.365625 324.339917 
L 224.51108 324.339917 
L 224.51108 303.337024 
L 234.656534 303.337024 
L 234.656534 291.66875 
L 244.801989 291.66875 
L 244.801989 270.665857 
L 254.947443 270.665857 
L 254.947443 284.667785 
L 265.092898 284.667785 
L 265.092898 237.99469 
L 275.238352 237.99469 
L 275.238352 247.329309 
L 285.383807 247.329309 
L 285.383807 188.98794 
L 295.529261 188.98794 
L 295.529261 179.653321 
L 305.674716 179.653321 
L 305.674716 151.649463 
L 315.82017 151.649463 
L 315.82017 165.651392 
L 325.965625 165.651392 
L 325.965625 139.981189 
L 336.11108 139.981189 
L 336.11108 104.976368 
L 346.256534 104.976368 
L 346.256534 163.317737 
L 356.401989 163.317737 
L 356.401989 123.645606 
L 366.547443 123.645606 
L 366.547443 174.986011 
L 376.692898 174.986011 
L 376.692898 158.650428 
L 386.838352 158.650428 
L 386.838352 235.661035 
L 396.983807 235.661035 
L 396.983807 230.993726 
L 407.129261 230.993726 
L 407.129261 270.665857 
L 417.274716 270.665857 
L 417.274716 265.998547 
L 427.42017 265.998547 
L 427.42017 296.336059 
L 437.565625 296.336059 
L 437.565625 301.003369 
L 447.71108 301.003369 
L 447.71108 329.007226 
L 457.856534 329.007226 
L 457.856534 324.339917 
L 468.001989 324.339917 
L 468.001989 333.674536 
L 478.147443 333.674536 
L 478.147443 340.6755 
L 488.292898 340.6755 
L 488.292898 340.6755 
L 498.438352 340.6755 
L 498.438352 338.341845 
L 508.583807 338.341845 
L 508.583807 338.341845 
L 518.729261 338.341845 
L 518.729261 340.6755 
L 528.874716 340.6755 
L 528.874716 340.6755 
L 539.02017 340.6755 
L 539.02017 340.6755 
L 549.165625 340.6755 
L 549.165625 340.6755 
L 559.31108 340.6755 
L 559.31108 340.6755 
L 569.456534 340.6755 
L 569.456534 340.6755 
L 579.601989 340.6755 
L 579.601989 340.6755 
" clip-path="url(#pa8acb85e8b)" style="fill: none; stroke: #2ca02c; stroke-width: 2; stroke-linejoin: miter"/>
   </g>
   <g id="patch_8">
    <path d="M 72.329261 340.6755 
L 72.329261 340.6755 
L 82.474716 340.6755 
L 82.474716 340.6755 
L 92.62017 340.6755 
L 92.62017 340.6755 
L 102.765625 340.6755 
L 102.765625 340.6755 
L 112.91108 340.6755 
L 112.91108 340.6755 
L 123.056534 340.6755 
L 123.056534 340.6755 
L 133.201989 340.6755 
L 133.201989 340.6755 
L 143.347443 340.6755 
L 143.347443 340.6755 
L 153.492898 340.6755 
L 153.492898 340.6755 
L 163.638352 340.6755 
L 163.638352 340.6755 
L 173.783807 340.6755 
L 173.783807 336.00819 
L 183.929261 336.00819 
L 183.929261 333.674536 
L 194.074716 333.674536 
L 194.074716 329.007226 
L 204.22017 329.007226 
L 204.22017 329.007226 
L 214.365625 329.007226 
L 214.365625 322.006262 
L 224.51108 322.006262 
L 224.51108 310.337988 
L 234.656534 310.337988 
L 234.656534 310.337988 
L 244.801989 310.337988 
L 244.801989 282.334131 
L 254.947443 282.334131 
L 254.947443 261.331238 
L 265.092898 261.331238 
L 265.092898 209.990833 
L 275.238352 209.990833 
L 275.238352 207.657178 
L 285.383807 207.657178 
L 285.383807 209.990833 
L 295.529261 209.990833 
L 295.529261 188.98794 
L 305.674716 188.98794 
L 305.674716 177.319666 
L 315.82017 177.319666 
L 315.82017 135.31388 
L 325.965625 135.31388 
L 325.965625 146.982154 
L 336.11108 146.982154 
L 336.11108 167.985047 
L 346.256534 167.985047 
L 346.256534 160.984082 
L 356.401989 160.984082 
L 356.401989 125.979261 
L 366.547443 125.979261 
L 366.547443 165.651392 
L 376.692898 165.651392 
L 376.692898 202.989868 
L 386.838352 202.989868 
L 386.838352 230.993726 
L 396.983807 230.993726 
L 396.983807 223.992761 
L 407.129261 223.992761 
L 407.129261 249.662964 
L 417.274716 249.662964 
L 417.274716 244.995654 
L 427.42017 244.995654 
L 427.42017 277.666821 
L 437.565625 277.666821 
L 437.565625 301.003369 
L 447.71108 301.003369 
L 447.71108 322.006262 
L 457.856534 322.006262 
L 457.856534 326.673571 
L 468.001989 326.673571 
L 468.001989 336.00819 
L 478.147443 336.00819 
L 478.147443 336.00819 
L 488.292898 336.00819 
L 488.292898 338.341845 
L 498.438352 338.341845 
L 498.438352 340.6755 
L 508.583807 340.6755 
L 508.583807 340.6755 
L 518.729261 340.6755 
L 518.729261 340.6755 
L 528.874716 340.6755 
L 528.874716 340.6755 
L 539.02017 340.6755 
L 539.02017 340.6755 
L 549.165625 340.6755 
L 549.165625 340.6755 
L 559.31108 340.6755 
L 559.31108 340.6755 
L 569.456534 340.6755 
L 569.456534 340.6755 
L 579.601989 340.6755 
L 579.601989 340.6755 
" clip-path="url(#pa8acb85e8b)" style="fill: none; stroke: #d62728; stroke-width: 2; stroke-linejoin: miter"/>
   </g>
   <g id="patch_9">
    <path d="M 72.329261 340.6755 
L 72.329261 340.6755 
L 82.474716 340.6755 
L 82.474716 340.6755 
L 92.62017 340.6755 
L 92.62017 340.6755 
L 102.765625 340.6755 
L 102.765625 340.6755 
L 112.91108 340.6755 
L 112.91108 340.6755 
L 123.056534 340.6755 
L 123.056534 340.6755 
L 133.201989 340.6755 
L 133.201989 338.341845 
L 143.347443 338.341845 
L 143.347443 338.341845 
L 153.492898 338.341845 
L 153.492898 338.341845 
L 163.638352 338.341845 
L 163.638352 338.341845 
L 173.783807 338.341845 
L 173.783807 333.674536 
L 183.929261 333.674536 
L 183.929261 340.6755 
L 194.074716 340.6755 
L 194.074716 331.340881 
L 204.22017 331.340881 
L 204.22017 324.339917 
L 214.365625 324.339917 
L 214.365625 324.339917 
L 224.51108 324.339917 
L 224.51108 303.337024 
L 234.656534 303.337024 
L 234.656534 291.66875 
L 244.801989 291.66875 
L 244.801989 301.003369 
L 254.947443 301.003369 
L 254.947443 254.330273 
L 265.092898 254.330273 
L 265.092898 261.331238 
L 275.238352 261.331238 
L 275.238352 230.993726 
L 285.383807 230.993726 
L 285.383807 198.322559 
L 295.529261 198.322559 
L 295.529261 200.656214 
L 305.674716 200.656214 
L 305.674716 158.650428 
L 315.82017 158.650428 
L 315.82017 195.988904 
L 325.965625 195.988904 
L 325.965625 163.317737 
L 336.11108 163.317737 
L 336.11108 137.647535 
L 346.256534 137.647535 
L 346.256534 167.985047 
L 356.401989 167.985047 
L 356.401989 114.310987 
L 366.547443 114.310987 
L 366.547443 172.652356 
L 376.692898 172.652356 
L 376.692898 151.649463 
L 386.838352 151.649463 
L 386.838352 167.985047 
L 396.983807 167.985047 
L 396.983807 242.662 
L 407.129261 242.662 
L 407.129261 258.997583 
L 417.274716 258.997583 
L 417.274716 256.663928 
L 427.42017 256.663928 
L 427.42017 296.336059 
L 437.565625 296.336059 
L 437.565625 287.00144 
L 447.71108 287.00144 
L 447.71108 322.006262 
L 457.856534 322.006262 
L 457.856534 326.673571 
L 468.001989 326.673571 
L 468.001989 329.007226 
L 478.147443 329.007226 
L 478.147443 333.674536 
L 488.292898 333.674536 
L 488.292898 336.00819 
L 498.438352 336.00819 
L 498.438352 338.341845 
L 508.583807 338.341845 
L 508.583807 338.341845 
L 518.729261 338.341845 
L 518.729261 340.6755 
L 528.874716 340.6755 
L 528.874716 340.6755 
L 539.02017 340.6755 
L 539.02017 340.6755 
L 549.165625 340.6755 
L 549.165625 340.6755 
L 559.31108 340.6755 
L 559.31108 340.6755 
L 569.456534 340.6755 
L 569.456534 340.6755 
L 579.601989 340.6755 
L 579.601989 340.6755 
" clip-path="url(#pa8acb85e8b)" style="fill: none; stroke: #9467bd; stroke-width: 2; stroke-linejoin: miter"/>
   </g>
   <g id="line2d_31">
    <path d="M 325.285635 340.6755 
L 325.285635 35.7555 
" clip-path="url(#pa8acb85e8b)" style="fill: none; stroke-dasharray: 5.55,2.4; stroke-dashoffset: 0; stroke: #2171b5; stroke-opacity: 0.8; stroke-width: 1.5"/>
   </g>
   <g id="line2d_32">
    <path d="M 357.925167 340.6755 
L 357.925167 35.7555 
" clip-path="url(#pa8acb85e8b)" style="fill: none; stroke-dasharray: 5.55,2.4; stroke-dashoffset: 0; stroke: #d94801; stroke-opacity: 0.8; stroke-width: 1.5"/>
   </g>
   <g id="patch_10">
    <path d="M 46.965625 340.6755 
L 46.965625 35.7555 
" style="fill: none; stroke: #000000; stroke-width: 0.8; stroke-linejoin: miter; stroke-linecap: square"/>
   </g>
   <g id="patch_11">
    <path d="M 604.965625 340.6755 
L 604.965625 35.7555 
" style="fill: none; stroke: #000000; stroke-width: 0.8; stroke-linejoin: miter; stroke-linecap: square"/>
   </g>
   <g id="patch_12">
    <path d="M 46.965625 340.6755 
L 604.965625 340.6755 
" style="fill: none; stroke: #000000; stroke-width: 0.8; stroke-linejoin: miter; stroke-linecap: square"/>
   </g>
   <g id="patch_13">
    <path d="M 46.965625 35.7555 
L 604.965625 35.7555 
" style="fill: none; stroke: #000000; stroke-width: 0.8; stroke-linejoin: miter; stroke-linecap: square"/>
   </g>
   <g id="text_18">
    <!-- C: grounded -->
    <g style="fill: #2171b5" transform="translate(174.244323 56.789381) scale(0.08 -0.08)">
     <defs>
      <path id="DejaVuSans-43" d="M 4122 4306 
L 4122 3641 
Q 3803 3938 3442 4084 
Q 3081 4231 2675 4231 
Q 1875 4231 1450 3742 
Q 1025 3253 1025 2328 
Q 1025 1406 1450 917 
Q 1875 428 2675 428 
Q 3081 428 3442 575 
Q 3803 722 4122 1019 
L 4122 359 
Q 3791 134 3420 21 
Q 3050 -91 2638 -91 
Q 1578 -91 968 557 
Q 359 1206 359 2328 
Q 359 3453 968 4101 
Q 1578 4750 2638 4750 
Q 3056 4750 3426 4639 
Q 3797 4528 4122 4306 
z
" transform="scale(0.015625)"/>
      <path id="DejaVuSans-3a" d="M 750 794 
L 1409 794 
L 1409 0 
L 750 0 
L 750 794 
z
M 750 3309 
L 1409 3309 
L 1409 2516 
L 750 2516 
L 750 3309 
z
" transform="scale(0.015625)"/>
      <path id="DejaVuSans-67" d="M 2906 1791 
Q 2906 2416 2648 2759 
Q 2391 3103 1925 3103 
Q 1463 3103 1205 2759 
Q 947 2416 947 1791 
Q 947 1169 1205 825 
Q 1463 481 1925 481 
Q 2391 481 2648 825 
Q 2906 1169 2906 1791 
z
M 3481 434 
Q 3481 -459 3084 -895 
Q 2688 -1331 1869 -1331 
Q 1566 -1331 1297 -1286 
Q 1028 -1241 775 -1147 
L 775 -588 
Q 1028 -725 1275 -790 
Q 1522 -856 1778 -856 
Q 2344 -856 2625 -561 
Q 2906 -266 2906 331 
L 2906 616 
Q 2728 306 2450 153 
Q 2172 0 1784 0 
Q 1141 0 747 490 
Q 353 981 353 1791 
Q 353 2603 747 3093 
Q 1141 3584 1784 3584 
Q 2172 3584 2450 3431 
Q 2728 3278 2906 2969 
L 2906 3500 
L 3481 3500 
L 3481 434 
z
" transform="scale(0.015625)"/>
     </defs>
     <use xlink:href="#DejaVuSans-43"/>
     <use xlink:href="#DejaVuSans-3a" transform="translate(69.824219 0)"/>
     <use xlink:href="#DejaVuSans-20" transform="translate(103.515625 0)"/>
     <use xlink:href="#DejaVuSans-67" transform="translate(135.302734 0)"/>
     <use xlink:href="#DejaVuSans-72" transform="translate(198.779297 0)"/>
     <use xlink:href="#DejaVuSans-6f" transform="translate(237.642578 0)"/>
     <use xlink:href="#DejaVuSans-75" transform="translate(298.824219 0)"/>
     <use xlink:href="#DejaVuSans-6e" transform="translate(362.203125 0)"/>
     <use xlink:href="#DejaVuSans-64" transform="translate(425.582031 0)"/>
     <use xlink:href="#DejaVuSans-65" transform="translate(489.058594 0)"/>
     <use xlink:href="#DejaVuSans-64" transform="translate(550.582031 0)"/>
    </g>
    <!-- (p30) -->
    <g style="fill: #2171b5" transform="translate(188.056823 65.747631) scale(0.08 -0.08)">
     <use xlink:href="#DejaVuSans-28"/>
     <use xlink:href="#DejaVuSans-70" transform="translate(39.013672 0)"/>
     <use xlink:href="#DejaVuSans-33" transform="translate(102.490234 0)"/>
     <use xlink:href="#DejaVuSans-30" transform="translate(166.113281 0)"/>
     <use xlink:href="#DejaVuSans-29" transform="translate(229.736328 0)"/>
    </g>
   </g>
   <g id="text_19">
    <!-- C: moderate -->
    <g style="fill: #696969" transform="translate(316.724151 56.789381) scale(0.08 -0.08)">
     <use xlink:href="#DejaVuSans-43"/>
     <use xlink:href="#DejaVuSans-3a" transform="translate(69.824219 0)"/>
     <use xlink:href="#DejaVuSans-20" transform="translate(103.515625 0)"/>
     <use xlink:href="#DejaVuSans-6d" transform="translate(135.302734 0)"/>
     <use xlink:href="#DejaVuSans-6f" transform="translate(232.714844 0)"/>
     <use xlink:href="#DejaVuSans-64" transform="translate(293.896484 0)"/>
     <use xlink:href="#DejaVuSans-65" transform="translate(357.373047 0)"/>
     <use xlink:href="#DejaVuSans-72" transform="translate(418.896484 0)"/>
     <use xlink:href="#DejaVuSans-61" transform="translate(460.009766 0)"/>
     <use xlink:href="#DejaVuSans-74" transform="translate(521.289062 0)"/>
     <use xlink:href="#DejaVuSans-65" transform="translate(560.498047 0)"/>
    </g>
    <!-- (no directive) -->
    <g style="fill: #696969" transform="translate(314.856651 65.747631) scale(0.08 -0.08)">
     <use xlink:href="#DejaVuSans-28"/>
     <use xlink:href="#DejaVuSans-6e" transform="translate(39.013672 0)"/>
     <use xlink:href="#DejaVuSans-6f" transform="translate(102.392578 0)"/>
     <use xlink:href="#DejaVuSans-20" transform="translate(163.574219 0)"/>
     <use xlink:href="#DejaVuSans-64" transform="translate(195.361328 0)"/>
     <use xlink:href="#DejaVuSans-69" transform="translate(258.837891 0)"/>
     <use xlink:href="#DejaVuSans-72" transform="translate(286.621094 0)"/>
     <use xlink:href="#DejaVuSans-65" transform="translate(325.484375 0)"/>
     <use xlink:href="#DejaVuSans-63" transform="translate(387.007812 0)"/>
     <use xlink:href="#DejaVuSans-74" transform="translate(441.988281 0)"/>
     <use xlink:href="#DejaVuSans-69" transform="translate(481.197266 0)"/>
     <use xlink:href="#DejaVuSans-76" transform="translate(508.980469 0)"/>
     <use xlink:href="#DejaVuSans-65" transform="translate(568.160156 0)"/>
     <use xlink:href="#DejaVuSans-29" transform="translate(629.683594 0)"/>
    </g>
   </g>
   <g id="text_20">
    <!-- C: uncertainty -->
    <g style="fill: #d94801" transform="translate(440.375453 56.789381) scale(0.08 -0.08)">
     <use xlink:href="#DejaVuSans-43"/>
     <use xlink:href="#DejaVuSans-3a" transform="translate(69.824219 0)"/>
     <use xlink:href="#DejaVuSans-20" transform="translate(103.515625 0)"/>
     <use xlink:href="#DejaVuSans-75" transform="translate(135.302734 0)"/>
     <use xlink:href="#DejaVuSans-6e" transform="translate(198.681641 0)"/>
     <use xlink:href="#DejaVuSans-63" transform="translate(262.060547 0)"/>
     <use xlink:href="#DejaVuSans-65" transform="translate(317.041016 0)"/>
     <use xlink:href="#DejaVuSans-72" transform="translate(378.564453 0)"/>
     <use xlink:href="#DejaVuSans-74" transform="translate(419.677734 0)"/>
     <use xlink:href="#DejaVuSans-61" transform="translate(458.886719 0)"/>
     <use xlink:href="#DejaVuSans-69" transform="translate(520.166016 0)"/>
     <use xlink:href="#DejaVuSans-6e" transform="translate(547.949219 0)"/>
     <use xlink:href="#DejaVuSans-74" transform="translate(611.328125 0)"/>
     <use xlink:href="#DejaVuSans-79" transform="translate(650.537109 0)"/>
    </g>
    <!-- (p70) -->
    <g style="fill: #d94801" transform="translate(458.012953 65.747631) scale(0.08 -0.08)">
     <defs>
      <path id="DejaVuSans-37" d="M 525 4666 
L 3525 4666 
L 3525 4397 
L 1831 0 
L 1172 0 
L 2766 4134 
L 525 4134 
L 525 4666 
z
" transform="scale(0.015625)"/>
     </defs>
     <use xlink:href="#DejaVuSans-28"/>
     <use xlink:href="#DejaVuSans-70" transform="translate(39.013672 0)"/>
     <use xlink:href="#DejaVuSans-37" transform="translate(102.490234 0)"/>
     <use xlink:href="#DejaVuSans-30" transform="translate(166.113281 0)"/>
     <use xlink:href="#DejaVuSans-29" transform="translate(229.736328 0)"/>
    </g>
   </g>
   <g id="text_21">
    <!-- Experiment 4 — per-turn ambivalence distribution by condition -->
    <g transform="translate(136.392812 16.318125) scale(0.12 -0.12)">
     <defs>
      <path id="DejaVuSans-45" d="M 628 4666 
L 3578 4666 
L 3578 4134 
L 1259 4134 
L 1259 2753 
L 3481 2753 
L 3481 2222 
L 1259 2222 
L 1259 531 
L 3634 531 
L 3634 0 
L 628 0 
L 628 4666 
z
" transform="scale(0.015625)"/>
      <path id="DejaVuSans-2014" d="M 313 1978 
L 6088 1978 
L 6088 1528 
L 313 1528 
L 313 1978 
z
" transform="scale(0.015625)"/>
      <path id="DejaVuSans-2d" d="M 313 2009 
L 1997 2009 
L 1997 1497 
L 313 1497 
L 313 2009 
z
" transform="scale(0.015625)"/>
     </defs>
     <use xlink:href="#DejaVuSans-45"/>
     <use xlink:href="#DejaVuSans-78" transform="translate(63.183594 0)"/>
     <use xlink:href="#DejaVuSans-70" transform="translate(122.363281 0)"/>
     <use xlink:href="#DejaVuSans-65" transform="translate(185.839844 0)"/>
     <use xlink:href="#DejaVuSans-72" transform="translate(247.363281 0)"/>
     <use xlink:href="#DejaVuSans-69" transform="translate(288.476562 0)"/>
     <use xlink:href="#DejaVuSans-6d" transform="translate(316.259766 0)"/>
     <use xlink:href="#DejaVuSans-65" transform="translate(413.671875 0)"/>
     <use xlink:href="#DejaVuSans-6e" transform="translate(475.195312 0)"/>
     <use xlink:href="#DejaVuSans-74" transform="translate(538.574219 0)"/>
     <use xlink:href="#DejaVuSans-20" transform="translate(577.783203 0)"/>
     <use xlink:href="#DejaVuSans-34" transform="translate(609.570312 0)"/>
     <use xlink:href="#DejaVuSans-20" transform="translate(673.193359 0)"/>
     <use xlink:href="#DejaVuSans-2014" transform="translate(704.980469 0)"/>
     <use xlink:href="#DejaVuSans-20" transform="translate(804.980469 0)"/>
     <use xlink:href="#DejaVuSans-70" transform="translate(836.767578 0)"/>
     <use xlink:href="#DejaVuSans-65" transform="translate(900.244141 0)"/>
     <use xlink:href="#DejaVuSans-72" transform="translate(961.767578 0)"/>
     <use xlink:href="#DejaVuSans-2d" transform="translate(996.505859 0)"/>
     <use xlink:href="#DejaVuSans-74" transform="translate(1032.589844 0)"/>
     <use xlink:href="#DejaVuSans-75" transform="translate(1071.798828 0)"/>
     <use xlink:href="#DejaVuSans-72" transform="translate(1135.177734 0)"/>
     <use xlink:href="#DejaVuSans-6e" transform="translate(1174.541016 0)"/>
     <use xlink:href="#DejaVuSans-20" transform="translate(1237.919922 0)"/>
     <use xlink:href="#DejaVuSans-61" transform="translate(1269.707031 0)"/>
     <use xlink:href="#DejaVuSans-6d" transform="translate(1330.986328 0)"/>
     <use xlink:href="#DejaVuSans-62" transform="translate(1428.398438 0)"/>
     <use xlink:href="#DejaVuSans-69" transform="translate(1491.875 0)"/>
     <use xlink:href="#DejaVuSans-76" transform="translate(1519.658203 0)"/>
     <use xlink:href="#DejaVuSans-61" transform="translate(1578.837891 0)"/>
     <use xlink:href="#DejaVuSans-6c" transform="translate(1640.117188 0)"/>
     <use xlink:href="#DejaVuSans-65" transform="translate(1667.900391 0)"/>
     <use xlink:href="#DejaVuSans-6e" transform="translate(1729.423828 0)"/>
     <use xlink:href="#DejaVuSans-63" transform="translate(1792.802734 0)"/>
     <use xlink:href="#DejaVuSans-65" transform="translate(1847.783203 0)"/>
     <use xlink:href="#DejaVuSans-20" transform="translate(1909.306641 0)"/>
     <use xlink:href="#DejaVuSans-64" transform="translate(1941.09375 0)"/>
     <use xlink:href="#DejaVuSans-69" transform="translate(2004.570312 0)"/>
     <use xlink:href="#DejaVuSans-73" transform="translate(2032.353516 0)"/>
     <use xlink:href="#DejaVuSans-74" transform="translate(2084.453125 0)"/>
     <use xlink:href="#DejaVuSans-72" transform="translate(2123.662109 0)"/>
     <use xlink:href="#DejaVuSans-69" transform="translate(2164.775391 0)"/>
     <use xlink:href="#DejaVuSans-62" transform="translate(2192.558594 0)"/>
     <use xlink:href="#DejaVuSans-75" transform="translate(2256.035156 0)"/>
     <use xlink:href="#DejaVuSans-74" transform="translate(2319.414062 0)"/>
     <use xlink:href="#DejaVuSans-69" transform="translate(2358.623047 0)"/>
     <use xlink:href="#DejaVuSans-6f" transform="translate(2386.40625 0)"/>
     <use xlink:href="#DejaVuSans-6e" transform="translate(2447.587891 0)"/>
     <use xlink:href="#DejaVuSans-20" transform="translate(2510.966797 0)"/>
     <use xlink:href="#DejaVuSans-62" transform="translate(2542.753906 0)"/>
     <use xlink:href="#DejaVuSans-79" transform="translate(2606.230469 0)"/>
     <use xlink:href="#DejaVuSans-20" transform="translate(2665.410156 0)"/>
     <use xlink:href="#DejaVuSans-63" transform="translate(2697.197266 0)"/>
     <use xlink:href="#DejaVuSans-6f" transform="translate(2752.177734 0)"/>
     <use xlink:href="#DejaVuSans-6e" transform="translate(2813.359375 0)"/>
     <use xlink:href="#DejaVuSans-64" transform="translate(2876.738281 0)"/>
     <use xlink:href="#DejaVuSans-69" transform="translate(2940.214844 0)"/>
     <use xlink:href="#DejaVuSans-74" transform="translate(2967.998047 0)"/>
     <use xlink:href="#DejaVuSans-69" transform="translate(3007.207031 0)"/>
     <use xlink:href="#DejaVuSans-6f" transform="translate(3034.990234 0)"/>
     <use xlink:href="#DejaVuSans-6e" transform="translate(3096.171875 0)"/>
    </g>
    <!-- Condition C thresholds: p30=0.4193 / p70=0.4217  (8192-shot calibration, Appendix rev 1) -->
    <g transform="translate(51.447812 29.7555) scale(0.12 -0.12)">
     <defs>
      <path id="DejaVuSans-68" d="M 3513 2113 
L 3513 0 
L 2938 0 
L 2938 2094 
Q 2938 2591 2744 2837 
Q 2550 3084 2163 3084 
Q 1697 3084 1428 2787 
Q 1159 2491 1159 1978 
L 1159 0 
L 581 0 
L 581 4863 
L 1159 4863 
L 1159 2956 
Q 1366 3272 1645 3428 
Q 1925 3584 2291 3584 
Q 2894 3584 3203 3211 
Q 3513 2838 3513 2113 
z
" transform="scale(0.015625)"/>
      <path id="DejaVuSans-39" d="M 703 97 
L 703 672 
Q 941 559 1184 500 
Q 1428 441 1663 441 
Q 2288 441 2617 861 
Q 2947 1281 2994 2138 
Q 2813 1869 2534 1725 
Q 2256 1581 1919 1581 
Q 1219 1581 811 2004 
Q 403 2428 403 3163 
Q 403 3881 828 4315 
Q 1253 4750 1959 4750 
Q 2769 4750 3195 4129 
Q 3622 3509 3622 2328 
Q 3622 1225 3098 567 
Q 2575 -91 1691 -91 
Q 1453 -91 1209 -44 
Q 966 3 703 97 
z
M 1959 2075 
Q 2384 2075 2632 2365 
Q 2881 2656 2881 3163 
Q 2881 3666 2632 3958 
Q 2384 4250 1959 4250 
Q 1534 4250 1286 3958 
Q 1038 3666 1038 3163 
Q 1038 2656 1286 2365 
Q 1534 2075 1959 2075 
z
" transform="scale(0.015625)"/>
      <path id="DejaVuSans-2f" d="M 1625 4666 
L 2156 4666 
L 531 -594 
L 0 -594 
L 1625 4666 
z
" transform="scale(0.015625)"/>
      <path id="DejaVuSans-41" d="M 2188 4044 
L 1331 1722 
L 3047 1722 
L 2188 4044 
z
M 1831 4666 
L 2547 4666 
L 4325 0 
L 3669 0 
L 3244 1197 
L 1141 1197 
L 716 0 
L 50 0 
L 1831 4666 
z
" transform="scale(0.015625)"/>
     </defs>
     <use xlink:href="#DejaVuSans-43"/>
     <use xlink:href="#DejaVuSans-6f" transform="translate(69.824219 0)"/>
     <use xlink:href="#DejaVuSans-6e" transform="translate(131.005859 0)"/>
     <use xlink:href="#DejaVuSans-64" transform="translate(194.384766 0)"/>
     <use xlink:href="#DejaVuSans-69" transform="translate(257.861328 0)"/>
     <use xlink:href="#DejaVuSans-74" transform="translate(285.644531 0)"/>
     <use xlink:href="#DejaVuSans-69" transform="translate(324.853516 0)"/>
     <use xlink:href="#DejaVuSans-6f" transform="translate(352.636719 0)"/>
     <use xlink:href="#DejaVuSans-6e" transform="translate(413.818359 0)"/>
     <use xlink:href="#DejaVuSans-20" transform="translate(477.197266 0)"/>
     <use xlink:href="#DejaVuSans-43" transform="translate(508.984375 0)"/>
     <use xlink:href="#DejaVuSans-20" transform="translate(578.808594 0)"/>
     <use xlink:href="#DejaVuSans-74" transform="translate(610.595703 0)"/>
     <use xlink:href="#DejaVuSans-68" transform="translate(649.804688 0)"/>
     <use xlink:href="#DejaVuSans-72" transform="translate(713.183594 0)"/>
     <use xlink:href="#DejaVuSans-65" transform="translate(752.046875 0)"/>
     <use xlink:href="#DejaVuSans-73" transform="translate(813.570312 0)"/>
     <use xlink:href="#DejaVuSans-68" transform="translate(865.669922 0)"/>
     <use xlink:href="#DejaVuSans-6f" transform="translate(929.048828 0)"/>
     <use xlink:href="#DejaVuSans-6c" transform="translate(990.230469 0)"/>
     <use xlink:href="#DejaVuSans-64" transform="translate(1018.013672 0)"/>
     <use xlink:href="#DejaVuSans-73" transform="translate(1081.490234 0)"/>
     <use xlink:href="#DejaVuSans-3a" transform="translate(1133.589844 0)"/>
     <use xlink:href="#DejaVuSans-20" transform="translate(1167.28125 0)"/>
     <use xlink:href="#DejaVuSans-70" transform="translate(1199.068359 0)"/>
     <use xlink:href="#DejaVuSans-33" transform="translate(1262.544922 0)"/>
     <use xlink:href="#DejaVuSans-30" transform="translate(1326.167969 0)"/>
     <use xlink:href="#DejaVuSans-3d" transform="translate(1389.791016 0)"/>
     <use xlink:href="#DejaVuSans-30" transform="translate(1473.580078 0)"/>
     <use xlink:href="#DejaVuSans-2e" transform="translate(1537.203125 0)"/>
     <use xlink:href="#DejaVuSans-34" transform="translate(1568.990234 0)"/>
     <use xlink:href="#DejaVuSans-31" transform="translate(1632.613281 0)"/>
     <use xlink:href="#DejaVuSans-39" transform="translate(1696.236328 0)"/>
     <use xlink:href="#DejaVuSans-33" transform="translate(1759.859375 0)"/>
     <use xlink:href="#DejaVuSans-20" transform="translate(1823.482422 0)"/>
     <use xlink:href="#DejaVuSans-2f" transform="translate(1855.269531 0)"/>
     <use xlink:href="#DejaVuSans-20" transform="translate(1888.960938 0)"/>
     <use xlink:href="#DejaVuSans-70" transform="translate(1920.748047 0)"/>
     <use xlink:href="#DejaVuSans-37" transform="translate(1984.224609 0)"/>
     <use xlink:href="#DejaVuSans-30" transform="translate(2047.847656 0)"/>
     <use xlink:href="#DejaVuSans-3d" transform="translate(2111.470703 0)"/>
     <use xlink:href="#DejaVuSans-30" transform="translate(2195.259766 0)"/>
     <use xlink:href="#DejaVuSans-2e" transform="translate(2258.882812 0)"/>
     <use xlink:href="#DejaVuSans-34" transform="translate(2290.669922 0)"/>
     <use xlink:href="#DejaVuSans-32" transform="translate(2354.292969 0)"/>
     <use xlink:href="#DejaVuSans-31" transform="translate(2417.916016 0)"/>
     <use xlink:href="#DejaVuSans-37" transform="translate(2481.539062 0)"/>
     <use xlink:href="#DejaVuSans-20" transform="translate(2545.162109 0)"/>
     <use xlink:href="#DejaVuSans-20" transform="translate(2576.949219 0)"/>
     <use xlink:href="#DejaVuSans-28" transform="translate(2608.736328 0)"/>
     <use xlink:href="#DejaVuSans-38" transform="translate(2647.75 0)"/>
     <use xlink:href="#DejaVuSans-31" transform="translate(2711.373047 0)"/>
     <use xlink:href="#DejaVuSans-39" transform="translate(2774.996094 0)"/>
     <use xlink:href="#DejaVuSans-32" transform="translate(2838.619141 0)"/>
     <use xlink:href="#DejaVuSans-2d" transform="translate(2902.242188 0)"/>
     <use xlink:href="#DejaVuSans-73" transform="translate(2938.326172 0)"/>
     <use xlink:href="#DejaVuSans-68" transform="translate(2990.425781 0)"/>
     <use xlink:href="#DejaVuSans-6f" transform="translate(3053.804688 0)"/>
     <use xlink:href="#DejaVuSans-74" transform="translate(3114.986328 0)"/>
     <use xlink:href="#DejaVuSans-20" transform="translate(3154.195312 0)"/>
     <use xlink:href="#DejaVuSans-63" transform="translate(3185.982422 0)"/>
     <use xlink:href="#DejaVuSans-61" transform="translate(3240.962891 0)"/>
     <use xlink:href="#DejaVuSans-6c" transform="translate(3302.242188 0)"/>
     <use xlink:href="#DejaVuSans-69" transform="translate(3330.025391 0)"/>
     <use xlink:href="#DejaVuSans-62" transform="translate(3357.808594 0)"/>
     <use xlink:href="#DejaVuSans-72" transform="translate(3421.285156 0)"/>
     <use xlink:href="#DejaVuSans-61" transform="translate(3462.398438 0)"/>
     <use xlink:href="#DejaVuSans-74" transform="translate(3523.677734 0)"/>
     <use xlink:href="#DejaVuSans-69" transform="translate(3562.886719 0)"/>
     <use xlink:href="#DejaVuSans-6f" transform="translate(3590.669922 0)"/>
     <use xlink:href="#DejaVuSans-6e" transform="translate(3651.851562 0)"/>
     <use xlink:href="#DejaVuSans-2c" transform="translate(3715.230469 0)"/>
     <use xlink:href="#DejaVuSans-20" transform="translate(3747.017578 0)"/>
     <use xlink:href="#DejaVuSans-41" transform="translate(3778.804688 0)"/>
     <use xlink:href="#DejaVuSans-70" transform="translate(3847.212891 0)"/>
     <use xlink:href="#DejaVuSans-70" transform="translate(3910.689453 0)"/>
     <use xlink:href="#DejaVuSans-65" transform="translate(3974.166016 0)"/>
     <use xlink:href="#DejaVuSans-6e" transform="translate(4035.689453 0)"/>
     <use xlink:href="#DejaVuSans-64" transform="translate(4099.068359 0)"/>
     <use xlink:href="#DejaVuSans-69" transform="translate(4162.544922 0)"/>
     <use xlink:href="#DejaVuSans-78" transform="translate(4190.328125 0)"/>
     <use xlink:href="#DejaVuSans-20" transform="translate(4249.507812 0)"/>
     <use xlink:href="#DejaVuSans-72" transform="translate(4281.294922 0)"/>
     <use xlink:href="#DejaVuSans-65" transform="translate(4320.158203 0)"/>
     <use xlink:href="#DejaVuSans-76" transform="translate(4381.681641 0)"/>
     <use xlink:href="#DejaVuSans-20" transform="translate(4440.861328 0)"/>
     <use xlink:href="#DejaVuSans-31" transform="translate(4472.648438 0)"/>
     <use xlink:href="#DejaVuSans-29" transform="translate(4536.271484 0)"/>
    </g>
   </g>
   <g id="legend_1">
    <g id="patch_14">
     <path d="M 363.291719 122.217375 
L 598.665625 122.217375 
Q 600.465625 122.217375 600.465625 120.417375 
L 600.465625 42.0555 
Q 600.465625 40.2555 598.665625 40.2555 
L 363.291719 40.2555 
Q 361.491719 40.2555 361.491719 42.0555 
L 361.491719 120.417375 
Q 361.491719 122.217375 363.291719 122.217375 
z
" style="fill: #ffffff; opacity: 0.95; stroke: #cccccc; stroke-linejoin: miter"/>
    </g>
    <g id="patch_15">
     <path d="M 365.091719 50.694094 
L 383.091719 50.694094 
L 383.091719 44.394094 
L 365.091719 44.394094 
L 365.091719 50.694094 
z
" style="fill: none; stroke: #1f77b4; stroke-width: 2; stroke-linejoin: miter"/>
    </g>
    <g id="text_22">
     <!-- Condition A (n=1200, mean=0.4202) -->
     <g transform="translate(390.291719 50.694094) scale(0.09 -0.09)">
      <use xlink:href="#DejaVuSans-43"/>
      <use xlink:href="#DejaVuSans-6f" transform="translate(69.824219 0)"/>
      <use xlink:href="#DejaVuSans-6e" transform="translate(131.005859 0)"/>
      <use xlink:href="#DejaVuSans-64" transform="translate(194.384766 0)"/>
      <use xlink:href="#DejaVuSans-69" transform="translate(257.861328 0)"/>
      <use xlink:href="#DejaVuSans-74" transform="translate(285.644531 0)"/>
      <use xlink:href="#DejaVuSans-69" transform="translate(324.853516 0)"/>
      <use xlink:href="#DejaVuSans-6f" transform="translate(352.636719 0)"/>
      <use xlink:href="#DejaVuSans-6e" transform="translate(413.818359 0)"/>
      <use xlink:href="#DejaVuSans-20" transform="translate(477.197266 0)"/>
      <use xlink:href="#DejaVuSans-41" transform="translate(508.984375 0)"/>
      <use xlink:href="#DejaVuSans-20" transform="translate(577.392578 0)"/>
      <use xlink:href="#DejaVuSans-28" transform="translate(609.179688 0)"/>
      <use xlink:href="#DejaVuSans-6e" transform="translate(648.193359 0)"/>
      <use xlink:href="#DejaVuSans-3d" transform="translate(711.572266 0)"/>
      <use xlink:href="#DejaVuSans-31" transform="translate(795.361328 0)"/>
      <use xlink:href="#DejaVuSans-32" transform="translate(858.984375 0)"/>
      <use xlink:href="#DejaVuSans-30" transform="translate(922.607422 0)"/>
      <use xlink:href="#DejaVuSans-30" transform="translate(986.230469 0)"/>
      <use xlink:href="#DejaVuSans-2c" transform="translate(1049.853516 0)"/>
      <use xlink:href="#DejaVuSans-20" transform="translate(1081.640625 0)"/>
      <use xlink:href="#DejaVuSans-6d" transform="translate(1113.427734 0)"/>
      <use xlink:href="#DejaVuSans-65" transform="translate(1210.839844 0)"/>
      <use xlink:href="#DejaVuSans-61" transform="translate(1272.363281 0)"/>
      <use xlink:href="#DejaVuSans-6e" transform="translate(1333.642578 0)"/>
      <use xlink:href="#DejaVuSans-3d" transform="translate(1397.021484 0)"/>
      <use xlink:href="#DejaVuSans-30" transform="translate(1480.810547 0)"/>
      <use xlink:href="#DejaVuSans-2e" transform="translate(1544.433594 0)"/>
      <use xlink:href="#DejaVuSans-34" transform="translate(1576.220703 0)"/>
      <use xlink:href="#DejaVuSans-32" transform="translate(1639.84375 0)"/>
      <use xlink:href="#DejaVuSans-30" transform="translate(1703.466797 0)"/>
      <use xlink:href="#DejaVuSans-32" transform="translate(1767.089844 0)"/>
      <use xlink:href="#DejaVuSans-29" transform="translate(1830.712891 0)"/>
     </g>
    </g>
    <g id="patch_16">
     <path d="M 365.091719 63.904406 
L 383.091719 63.904406 
L 383.091719 57.604406 
L 365.091719 57.604406 
L 365.091719 63.904406 
z
" style="fill: none; stroke: #2ca02c; stroke-width: 2; stroke-linejoin: miter"/>
    </g>
    <g id="text_23">
     <!-- Condition B (n=1200, mean=0.4202) -->
     <g transform="translate(390.291719 63.904406) scale(0.09 -0.09)">
      <defs>
       <path id="DejaVuSans-42" d="M 1259 2228 
L 1259 519 
L 2272 519 
Q 2781 519 3026 730 
Q 3272 941 3272 1375 
Q 3272 1813 3026 2020 
Q 2781 2228 2272 2228 
L 1259 2228 
z
M 1259 4147 
L 1259 2741 
L 2194 2741 
Q 2656 2741 2882 2914 
Q 3109 3088 3109 3444 
Q 3109 3797 2882 3972 
Q 2656 4147 2194 4147 
L 1259 4147 
z
M 628 4666 
L 2241 4666 
Q 2963 4666 3353 4366 
Q 3744 4066 3744 3513 
Q 3744 3084 3544 2831 
Q 3344 2578 2956 2516 
Q 3422 2416 3680 2098 
Q 3938 1781 3938 1306 
Q 3938 681 3513 340 
Q 3088 0 2303 0 
L 628 0 
L 628 4666 
z
" transform="scale(0.015625)"/>
      </defs>
      <use xlink:href="#DejaVuSans-43"/>
      <use xlink:href="#DejaVuSans-6f" transform="translate(69.824219 0)"/>
      <use xlink:href="#DejaVuSans-6e" transform="translate(131.005859 0)"/>
      <use xlink:href="#DejaVuSans-64" transform="translate(194.384766 0)"/>
      <use xlink:href="#DejaVuSans-69" transform="translate(257.861328 0)"/>
      <use xlink:href="#DejaVuSans-74" transform="translate(285.644531 0)"/>
      <use xlink:href="#DejaVuSans-69" transform="translate(324.853516 0)"/>
      <use xlink:href="#DejaVuSans-6f" transform="translate(352.636719 0)"/>
      <use xlink:href="#DejaVuSans-6e" transform="translate(413.818359 0)"/>
      <use xlink:href="#DejaVuSans-20" transform="translate(477.197266 0)"/>
      <use xlink:href="#DejaVuSans-42" transform="translate(508.984375 0)"/>
      <use xlink:href="#DejaVuSans-20" transform="translate(577.587891 0)"/>
      <use xlink:href="#DejaVuSans-28" transform="translate(609.375 0)"/>
      <use xlink:href="#DejaVuSans-6e" transform="translate(648.388672 0)"/>
      <use xlink:href="#DejaVuSans-3d" transform="translate(711.767578 0)"/>
      <use xlink:href="#DejaVuSans-31" transform="translate(795.556641 0)"/>
      <use xlink:href="#DejaVuSans-32" transform="translate(859.179688 0)"/>
      <use xlink:href="#DejaVuSans-30" transform="translate(922.802734 0)"/>
      <use xlink:href="#DejaVuSans-30" transform="translate(986.425781 0)"/>
      <use xlink:href="#DejaVuSans-2c" transform="translate(1050.048828 0)"/>
      <use xlink:href="#DejaVuSans-20" transform="translate(1081.835938 0)"/>
      <use xlink:href="#DejaVuSans-6d" transform="translate(1113.623047 0)"/>
      <use xlink:href="#DejaVuSans-65" transform="translate(1211.035156 0)"/>
      <use xlink:href="#DejaVuSans-61" transform="translate(1272.558594 0)"/>
      <use xlink:href="#DejaVuSans-6e" transform="translate(1333.837891 0)"/>
      <use xlink:href="#DejaVuSans-3d" transform="translate(1397.216797 0)"/>
      <use xlink:href="#DejaVuSans-30" transform="translate(1481.005859 0)"/>
      <use xlink:href="#DejaVuSans-2e" transform="translate(1544.628906 0)"/>
      <use xlink:href="#DejaVuSans-34" transform="translate(1576.416016 0)"/>
      <use xlink:href="#DejaVuSans-32" transform="translate(1640.039062 0)"/>
      <use xlink:href="#DejaVuSans-30" transform="translate(1703.662109 0)"/>
      <use xlink:href="#DejaVuSans-32" transform="translate(1767.285156 0)"/>
      <use xlink:href="#DejaVuSans-29" transform="translate(1830.908203 0)"/>
     </g>
    </g>
    <g id="patch_17">
     <path d="M 365.091719 77.114719 
L 383.091719 77.114719 
L 383.091719 70.814719 
L 365.091719 70.814719 
L 365.091719 77.114719 
z
" style="fill: none; stroke: #d62728; stroke-width: 2; stroke-linejoin: miter"/>
    </g>
    <g id="text_24">
     <!-- Condition C (n=1200, mean=0.4203) -->
     <g transform="translate(390.291719 77.114719) scale(0.09 -0.09)">
      <use xlink:href="#DejaVuSans-43"/>
      <use xlink:href="#DejaVuSans-6f" transform="translate(69.824219 0)"/>
      <use xlink:href="#DejaVuSans-6e" transform="translate(131.005859 0)"/>
      <use xlink:href="#DejaVuSans-64" transform="translate(194.384766 0)"/>
      <use xlink:href="#DejaVuSans-69" transform="translate(257.861328 0)"/>
      <use xlink:href="#DejaVuSans-74" transform="translate(285.644531 0)"/>
      <use xlink:href="#DejaVuSans-69" transform="translate(324.853516 0)"/>
      <use xlink:href="#DejaVuSans-6f" transform="translate(352.636719 0)"/>
      <use xlink:href="#DejaVuSans-6e" transform="translate(413.818359 0)"/>
      <use xlink:href="#DejaVuSans-20" transform="translate(477.197266 0)"/>
      <use xlink:href="#DejaVuSans-43" transform="translate(508.984375 0)"/>
      <use xlink:href="#DejaVuSans-20" transform="translate(578.808594 0)"/>
      <use xlink:href="#DejaVuSans-28" transform="translate(610.595703 0)"/>
      <use xlink:href="#DejaVuSans-6e" transform="translate(649.609375 0)"/>
      <use xlink:href="#DejaVuSans-3d" transform="translate(712.988281 0)"/>
      <use xlink:href="#DejaVuSans-31" transform="translate(796.777344 0)"/>
      <use xlink:href="#DejaVuSans-32" transform="translate(860.400391 0)"/>
      <use xlink:href="#DejaVuSans-30" transform="translate(924.023438 0)"/>
      <use xlink:href="#DejaVuSans-30" transform="translate(987.646484 0)"/>
      <use xlink:href="#DejaVuSans-2c" transform="translate(1051.269531 0)"/>
      <use xlink:href="#DejaVuSans-20" transform="translate(1083.056641 0)"/>
      <use xlink:href="#DejaVuSans-6d" transform="translate(1114.84375 0)"/>
      <use xlink:href="#DejaVuSans-65" transform="translate(1212.255859 0)"/>
      <use xlink:href="#DejaVuSans-61" transform="translate(1273.779297 0)"/>
      <use xlink:href="#DejaVuSans-6e" transform="translate(1335.058594 0)"/>
      <use xlink:href="#DejaVuSans-3d" transform="translate(1398.4375 0)"/>
      <use xlink:href="#DejaVuSans-30" transform="translate(1482.226562 0)"/>
      <use xlink:href="#DejaVuSans-2e" transform="translate(1545.849609 0)"/>
      <use xlink:href="#DejaVuSans-34" transform="translate(1577.636719 0)"/>
      <use xlink:href="#DejaVuSans-32" transform="translate(1641.259766 0)"/>
      <use xlink:href="#DejaVuSans-30" transform="translate(1704.882812 0)"/>
      <use xlink:href="#DejaVuSans-33" transform="translate(1768.505859 0)"/>
      <use xlink:href="#DejaVuSans-29" transform="translate(1832.128906 0)"/>
     </g>
    </g>
    <g id="patch_18">
     <path d="M 365.091719 90.325031 
L 383.091719 90.325031 
L 383.091719 84.025031 
L 365.091719 84.025031 
L 365.091719 90.325031 
z
" style="fill: none; stroke: #9467bd; stroke-width: 2; stroke-linejoin: miter"/>
    </g>
    <g id="text_25">
     <!-- Condition D (n=1200, mean=0.4205) -->
     <g transform="translate(390.291719 90.325031) scale(0.09 -0.09)">
      <defs>
       <path id="DejaVuSans-44" d="M 1259 4147 
L 1259 519 
L 2022 519 
Q 2988 519 3436 956 
Q 3884 1394 3884 2338 
Q 3884 3275 3436 3711 
Q 2988 4147 2022 4147 
L 1259 4147 
z
M 628 4666 
L 1925 4666 
Q 3281 4666 3915 4102 
Q 4550 3538 4550 2338 
Q 4550 1131 3912 565 
Q 3275 0 1925 0 
L 628 0 
L 628 4666 
z
" transform="scale(0.015625)"/>
      </defs>
      <use xlink:href="#DejaVuSans-43"/>
      <use xlink:href="#DejaVuSans-6f" transform="translate(69.824219 0)"/>
      <use xlink:href="#DejaVuSans-6e" transform="translate(131.005859 0)"/>
      <use xlink:href="#DejaVuSans-64" transform="translate(194.384766 0)"/>
      <use xlink:href="#DejaVuSans-69" transform="translate(257.861328 0)"/>
      <use xlink:href="#DejaVuSans-74" transform="translate(285.644531 0)"/>
      <use xlink:href="#DejaVuSans-69" transform="translate(324.853516 0)"/>
      <use xlink:href="#DejaVuSans-6f" transform="translate(352.636719 0)"/>
      <use xlink:href="#DejaVuSans-6e" transform="translate(413.818359 0)"/>
      <use xlink:href="#DejaVuSans-20" transform="translate(477.197266 0)"/>
      <use xlink:href="#DejaVuSans-44" transform="translate(508.984375 0)"/>
      <use xlink:href="#DejaVuSans-20" transform="translate(585.986328 0)"/>
      <use xlink:href="#DejaVuSans-28" transform="translate(617.773438 0)"/>
      <use xlink:href="#DejaVuSans-6e" transform="translate(656.787109 0)"/>
      <use xlink:href="#DejaVuSans-3d" transform="translate(720.166016 0)"/>
      <use xlink:href="#DejaVuSans-31" transform="translate(803.955078 0)"/>
      <use xlink:href="#DejaVuSans-32" transform="translate(867.578125 0)"/>
      <use xlink:href="#DejaVuSans-30" transform="translate(931.201172 0)"/>
      <use xlink:href="#DejaVuSans-30" transform="translate(994.824219 0)"/>
      <use xlink:href="#DejaVuSans-2c" transform="translate(1058.447266 0)"/>
      <use xlink:href="#DejaVuSans-20" transform="translate(1090.234375 0)"/>
      <use xlink:href="#DejaVuSans-6d" transform="translate(1122.021484 0)"/>
      <use xlink:href="#DejaVuSans-65" transform="translate(1219.433594 0)"/>
      <use xlink:href="#DejaVuSans-61" transform="translate(1280.957031 0)"/>
      <use xlink:href="#DejaVuSans-6e" transform="translate(1342.236328 0)"/>
      <use xlink:href="#DejaVuSans-3d" transform="translate(1405.615234 0)"/>
      <use xlink:href="#DejaVuSans-30" transform="translate(1489.404297 0)"/>
      <use xlink:href="#DejaVuSans-2e" transform="translate(1553.027344 0)"/>
      <use xlink:href="#DejaVuSans-34" transform="translate(1584.814453 0)"/>
      <use xlink:href="#DejaVuSans-32" transform="translate(1648.4375 0)"/>
      <use xlink:href="#DejaVuSans-30" transform="translate(1712.060547 0)"/>
      <use xlink:href="#DejaVuSans-35" transform="translate(1775.683594 0)"/>
      <use xlink:href="#DejaVuSans-29" transform="translate(1839.306641 0)"/>
     </g>
    </g>
    <g id="line2d_33">
     <path d="M 365.091719 100.385344 
L 374.091719 100.385344 
L 383.091719 100.385344 
" style="fill: none; stroke-dasharray: 5.55,2.4; stroke-dashoffset: 0; stroke: #2171b5; stroke-opacity: 0.8; stroke-width: 1.5"/>
    </g>
    <g id="text_26">
     <!-- p30 = 0.4193 (C: grounded) -->
     <g transform="translate(390.291719 103.535344) scale(0.09 -0.09)">
      <use xlink:href="#DejaVuSans-70"/>
      <use xlink:href="#DejaVuSans-33" transform="translate(63.476562 0)"/>
      <use xlink:href="#DejaVuSans-30" transform="translate(127.099609 0)"/>
      <use xlink:href="#DejaVuSans-20" transform="translate(190.722656 0)"/>
      <use xlink:href="#DejaVuSans-3d" transform="translate(222.509766 0)"/>
      <use xlink:href="#DejaVuSans-20" transform="translate(306.298828 0)"/>
      <use xlink:href="#DejaVuSans-30" transform="translate(338.085938 0)"/>
      <use xlink:href="#DejaVuSans-2e" transform="translate(401.708984 0)"/>
      <use xlink:href="#DejaVuSans-34" transform="translate(433.496094 0)"/>
      <use xlink:href="#DejaVuSans-31" transform="translate(497.119141 0)"/>
      <use xlink:href="#DejaVuSans-39" transform="translate(560.742188 0)"/>
      <use xlink:href="#DejaVuSans-33" transform="translate(624.365234 0)"/>
      <use xlink:href="#DejaVuSans-20" transform="translate(687.988281 0)"/>
      <use xlink:href="#DejaVuSans-28" transform="translate(719.775391 0)"/>
      <use xlink:href="#DejaVuSans-43" transform="translate(758.789062 0)"/>
      <use xlink:href="#DejaVuSans-3a" transform="translate(828.613281 0)"/>
      <use xlink:href="#DejaVuSans-20" transform="translate(862.304688 0)"/>
      <use xlink:href="#DejaVuSans-67" transform="translate(894.091797 0)"/>
      <use xlink:href="#DejaVuSans-72" transform="translate(957.568359 0)"/>
      <use xlink:href="#DejaVuSans-6f" transform="translate(996.431641 0)"/>
      <use xlink:href="#DejaVuSans-75" transform="translate(1057.613281 0)"/>
      <use xlink:href="#DejaVuSans-6e" transform="translate(1120.992188 0)"/>
      <use xlink:href="#DejaVuSans-64" transform="translate(1184.371094 0)"/>
      <use xlink:href="#DejaVuSans-65" transform="translate(1247.847656 0)"/>
      <use xlink:href="#DejaVuSans-64" transform="translate(1309.371094 0)"/>
      <use xlink:href="#DejaVuSans-29" transform="translate(1372.847656 0)"/>
     </g>
    </g>
    <g id="line2d_34">
     <path d="M 365.091719 113.595656 
L 374.091719 113.595656 
L 383.091719 113.595656 
" style="fill: none; stroke-dasharray: 5.55,2.4; stroke-dashoffset: 0; stroke: #d94801; stroke-opacity: 0.8; stroke-width: 1.5"/>
    </g>
    <g id="text_27">
     <!-- p70 = 0.4217 (C: with expressed uncertainty) -->
     <g transform="translate(390.291719 116.745656) scale(0.09 -0.09)">
      <defs>
       <path id="DejaVuSans-77" d="M 269 3500 
L 844 3500 
L 1563 769 
L 2278 3500 
L 2956 3500 
L 3675 769 
L 4391 3500 
L 4966 3500 
L 4050 0 
L 3372 0 
L 2619 2869 
L 1863 0 
L 1184 0 
L 269 3500 
z
" transform="scale(0.015625)"/>
      </defs>
      <use xlink:href="#DejaVuSans-70"/>
      <use xlink:href="#DejaVuSans-37" transform="translate(63.476562 0)"/>
      <use xlink:href="#DejaVuSans-30" transform="translate(127.099609 0)"/>
      <use xlink:href="#DejaVuSans-20" transform="translate(190.722656 0)"/>
      <use xlink:href="#DejaVuSans-3d" transform="translate(222.509766 0)"/>
      <use xlink:href="#DejaVuSans-20" transform="translate(306.298828 0)"/>
      <use xlink:href="#DejaVuSans-30" transform="translate(338.085938 0)"/>
      <use xlink:href="#DejaVuSans-2e" transform="translate(401.708984 0)"/>
      <use xlink:href="#DejaVuSans-34" transform="translate(433.496094 0)"/>
      <use xlink:href="#DejaVuSans-32" transform="translate(497.119141 0)"/>
      <use xlink:href="#DejaVuSans-31" transform="translate(560.742188 0)"/>
      <use xlink:href="#DejaVuSans-37" transform="translate(624.365234 0)"/>
      <use xlink:href="#DejaVuSans-20" transform="translate(687.988281 0)"/>
      <use xlink:href="#DejaVuSans-28" transform="translate(719.775391 0)"/>
      <use xlink:href="#DejaVuSans-43" transform="translate(758.789062 0)"/>
      <use xlink:href="#DejaVuSans-3a" transform="translate(828.613281 0)"/>
      <use xlink:href="#DejaVuSans-20" transform="translate(862.304688 0)"/>
      <use xlink:href="#DejaVuSans-77" transform="translate(894.091797 0)"/>
      <use xlink:href="#DejaVuSans-69" transform="translate(975.878906 0)"/>
      <use xlink:href="#DejaVuSans-74" transform="translate(1003.662109 0)"/>
      <use xlink:href="#DejaVuSans-68" transform="translate(1042.871094 0)"/>
      <use xlink:href="#DejaVuSans-20" transform="translate(1106.25 0)"/>
      <use xlink:href="#DejaVuSans-65" transform="translate(1138.037109 0)"/>
      <use xlink:href="#DejaVuSans-78" transform="translate(1197.810547 0)"/>
      <use xlink:href="#DejaVuSans-70" transform="translate(1256.990234 0)"/>
      <use xlink:href="#DejaVuSans-72" transform="translate(1320.466797 0)"/>
      <use xlink:href="#DejaVuSans-65" transform="translate(1359.330078 0)"/>
      <use xlink:href="#DejaVuSans-73" transform="translate(1420.853516 0)"/>
      <use xlink:href="#DejaVuSans-73" transform="translate(1472.953125 0)"/>
      <use xlink:href="#DejaVuSans-65" transform="translate(1525.052734 0)"/>
      <use xlink:href="#DejaVuSans-64" transform="translate(1586.576172 0)"/>
      <use xlink:href="#DejaVuSans-20" transform="translate(1650.052734 0)"/>
      <use xlink:href="#DejaVuSans-75" transform="translate(1681.839844 0)"/>
      <use xlink:href="#DejaVuSans-6e" transform="translate(1745.21875 0)"/>
      <use xlink:href="#DejaVuSans-63" transform="translate(1808.597656 0)"/>
      <use xlink:href="#DejaVuSans-65" transform="translate(1863.578125 0)"/>
      <use xlink:href="#DejaVuSans-72" transform="translate(1925.101562 0)"/>
      <use xlink:href="#DejaVuSans-74" transform="translate(1966.214844 0)"/>
      <use xlink:href="#DejaVuSans-61" transform="translate(2005.423828 0)"/>
      <use xlink:href="#DejaVuSans-69" transform="translate(2066.703125 0)"/>
      <use xlink:href="#DejaVuSans-6e" transform="translate(2094.486328 0)"/>
      <use xlink:href="#DejaVuSans-74" transform="translate(2157.865234 0)"/>
      <use xlink:href="#DejaVuSans-79" transform="translate(2197.074219 0)"/>
      <use xlink:href="#DejaVuSans-29" transform="translate(2256.253906 0)"/>
     </g>
    </g>
   </g>
  </g>
 </g>
 <defs>
  <clipPath id="pa8acb85e8b">
   <rect x="46.965625" y="35.7555" width="558" height="304.92"/>
  </clipPath>
 </defs>
</svg>
