<?xml version="1.0" encoding="utf-8" standalone="no"?>
<!DOCTYPE svg PUBLIC "-//W3C//DTD SVG 1.1//EN"
  "http://www.w3.org/Graphics/SVG/1.1/DTD/svg11.dtd">
<svg xmlns:xlink="http://www.w3.org/1999/xlink" width="612pt" height="360pt" viewBox="0 0 612 360" xmlns="http://www.w3.org/2000/svg" version="1.1">
 <metadata>
  <rdf:RDF xmlns:dc="http://purl.org/dc/elements/1.1/" xmlns:cc="http://creativecommons.org/ns#" xmlns:rdf="http://www.w3.org/1999/02/22-rdf-syntax-ns#">
   <cc:Work>
    <dc:type rdf:resource="http://purl.org/dc/dcmitype/StillImage"/>
    <dc:date>2026-05-10T09:29:02.765085</dc:date>
    <dc:format>image/svg+xml</dc:format>
    <dc:creator>
     <cc:Agent>
      <dc:title>Matplotlib v3.10.0, https://matplotlib.org/</dc:title>
     </cc:Agent>
    </dc:creator>
   </cc:Work>
  </rdf:RDF>
 </metadata>
 <defs>
  <style type="text/css">*{stroke-linejoin: round; stroke-linecap: butt}</style>
 </defs>
 <g id="figure_1">
  <g id="patch_1">
   <path d="M 0 360 
L 612 360 
L 612 0 
L 0 0 
z
" style="fill: #ffffff"/>
  </g>
  <g id="axes_1">
   <g id="patch_2">
    <path d="M 47.72 318.04 
L 601.2 318.04 
L 601.2 26.88 
L 47.72 26.88 
z
" style="fill: #ffffff"/>
   </g>
   <g id="FillBetweenPolyCollection_1">
    <defs>
     <path id="m95402089a9" d="M 72.878182 -278.360468 
L 72.878182 -243.512698 
L 144.758701 -253.361081 
L 216.639221 -240.525481 
L 288.51974 -241.927447 
L 360.40026 -247.495919 
L 432.280779 -238.19185 
L 504.161299 -248.229552 
L 576.041818 -242.05582 
L 576.041818 -277.391014 
L 576.041818 -277.391014 
L 504.161299 -283.348948 
L 432.280779 -273.975983 
L 360.40026 -282.869414 
L 288.51974 -275.093053 
L 216.639221 -276.495019 
L 144.758701 -285.496419 
L 72.878182 -278.360468 
z
" style="stroke: #9e9e9e; stroke-opacity: 0.15"/>
    </defs>
    <g clip-path="url(#p8d9953076b)">
     <use xlink:href="#m95402089a9" x="0" y="360" style="fill: #9e9e9e; fill-opacity: 0.15; stroke: #9e9e9e; stroke-opacity: 0.15"/>
    </g>
   </g>
   <g id="FillBetweenPolyCollection_2">
    <defs>
     <path id="mb0d813b59f" d="M 72.878182 -304.490887 
L 72.878182 -274.401113 
L 144.758701 -274.886153 
L 216.639221 -256.212636 
L 288.51974 -279.642998 
L 360.40026 -257.869333 
L 432.280779 -260.472406 
L 504.161299 -265.098625 
L 576.041818 -260.827465 
L 576.041818 -292.588035 
L 576.041818 -292.588035 
L 504.161299 -296.809041 
L 432.280779 -292.943094 
L 360.40026 -291.906667 
L 288.51974 -305.314835 
L 216.639221 -289.923864 
L 144.758701 -302.79268 
L 72.878182 -304.490887 
z
" style="stroke: #2196f3; stroke-opacity: 0.15"/>
    </defs>
    <g clip-path="url(#p8d9953076b)">
     <use xlink:href="#mb0d813b59f" x="0" y="360" style="fill: #2196f3; fill-opacity: 0.15; stroke: #2196f3; stroke-opacity: 0.15"/>
    </g>
   </g>
   <g id="FillBetweenPolyCollection_3">
    <defs>
     <path id="me23b8b37bc" d="M 72.878182 -302.209129 
L 72.878182 -271.830204 
L 144.758701 -278.499363 
L 216.639221 -279.914796 
L 288.51974 -289.976986 
L 360.40026 -281.558885 
L 432.280779 -266.421477 
L 504.161299 -276.574995 
L 576.041818 -271.124603 
L 576.041818 -299.27523 
L 576.041818 -299.27523 
L 504.161299 -304.743338 
L 432.280779 -296.699356 
L 360.40026 -307.038448 
L 288.51974 -310.752014 
L 216.639221 -306.256204 
L 144.758701 -305.245303 
L 72.878182 -302.209129 
z
" style="stroke: #4caf50; stroke-opacity: 0.15"/>
    </defs>
    <g clip-path="url(#p8d9953076b)">
     <use xlink:href="#me23b8b37bc" x="0" y="360" style="fill: #4caf50; fill-opacity: 0.15; stroke: #4caf50; stroke-opacity: 0.15"/>
    </g>
   </g>
   <g id="FillBetweenPolyCollection_4">
    <defs>
     <path id="mf50e008801" d="M 72.878182 -207.102868 
L 72.878182 -176.469299 
L 144.758701 -176.398722 
L 216.639221 -203.267632 
L 288.51974 -190.779466 
L 360.40026 -192.540926 
L 432.280779 -205.11386 
L 504.161299 -181.322844 
L 576.041818 -178.106352 
L 576.041818 -210.318481 
L 576.041818 -210.318481 
L 504.161299 -213.167823 
L 432.280779 -235.47714 
L 360.40026 -224.999907 
L 288.51974 -223.121868 
L 216.639221 -234.897035 
L 144.758701 -208.386611 
L 72.878182 -207.102868 
z
" style="stroke: #ff9800; stroke-opacity: 0.15"/>
    </defs>
    <g clip-path="url(#p8d9953076b)">
     <use xlink:href="#mf50e008801" x="0" y="360" style="fill: #ff9800; fill-opacity: 0.15; stroke: #ff9800; stroke-opacity: 0.15"/>
    </g>
   </g>
   <g id="matplotlib.axis_1">
    <g id="xtick_1">
     <g id="line2d_1">
      <path d="M 72.878182 318.04 
L 72.878182 26.88 
" clip-path="url(#p8d9953076b)" style="fill: none; stroke: #b0b0b0; stroke-opacity: 0.3; stroke-width: 0.8; stroke-linecap: square"/>
     </g>
     <g id="line2d_2">
      <defs>
       <path id="m61f1ced58d" d="M 0 0 
L 0 3.5 
" style="stroke: #000000; stroke-width: 0.8"/>
      </defs>
      <g>
       <use xlink:href="#m61f1ced58d" x="72.878182" y="318.04" style="stroke: #000000; stroke-width: 0.8"/>
      </g>
     </g>
     <g id="text_1">
      <!-- 5 -->
      <g transform="translate(69.696932 332.638438) scale(0.1 -0.1)">
       <defs>
        <path id="DejaVuSans-35" d="M 691 4666 
L 3169 4666 
L 3169 4134 
L 1269 4134 
L 1269 2991 
Q 1406 3038 1543 3061 
Q 1681 3084 1819 3084 
Q 2600 3084 3056 2656 
Q 3513 2228 3513 1497 
Q 3513 744 3044 326 
Q 2575 -91 1722 -91 
Q 1428 -91 1123 -41 
Q 819 9 494 109 
L 494 744 
Q 775 591 1075 516 
Q 1375 441 1709 441 
Q 2250 441 2565 725 
Q 2881 1009 2881 1497 
Q 2881 1984 2565 2268 
Q 2250 2553 1709 2553 
Q 1456 2553 1204 2497 
Q 953 2441 691 2322 
L 691 4666 
z
" transform="scale(0.015625)"/>
       </defs>
       <use xlink:href="#DejaVuSans-35"/>
      </g>
     </g>
    </g>
    <g id="xtick_2">
     <g id="line2d_3">
      <path d="M 144.758701 318.04 
L 144.758701 26.88 
" clip-path="url(#p8d9953076b)" style="fill: none; stroke: #b0b0b0; stroke-opacity: 0.3; stroke-width: 0.8; stroke-linecap: square"/>
     </g>
     <g id="line2d_4">
      <g>
       <use xlink:href="#m61f1ced58d" x="144.758701" y="318.04" style="stroke: #000000; stroke-width: 0.8"/>
      </g>
     </g>
     <g id="text_2">
      <!-- 10 -->
      <g transform="translate(138.396201 332.638438) scale(0.1 -0.1)">
       <defs>
        <path id="DejaVuSans-31" d="M 794 531 
L 1825 531 
L 1825 4091 
L 703 3866 
L 703 4441 
L 1819 4666 
L 2450 4666 
L 2450 531 
L 3481 531 
L 3481 0 
L 794 0 
L 794 531 
z
" transform="scale(0.015625)"/>
        <path id="DejaVuSans-30" d="M 2034 4250 
Q 1547 4250 1301 3770 
Q 1056 3291 1056 2328 
Q 1056 1369 1301 889 
Q 1547 409 2034 409 
Q 2525 409 2770 889 
Q 3016 1369 3016 2328 
Q 3016 3291 2770 3770 
Q 2525 4250 2034 4250 
z
M 2034 4750 
Q 2819 4750 3233 4129 
Q 3647 3509 3647 2328 
Q 3647 1150 3233 529 
Q 2819 -91 2034 -91 
Q 1250 -91 836 529 
Q 422 1150 422 2328 
Q 422 3509 836 4129 
Q 1250 4750 2034 4750 
z
" transform="scale(0.015625)"/>
       </defs>
       <use xlink:href="#DejaVuSans-31"/>
       <use xlink:href="#DejaVuSans-30" transform="translate(63.623047 0)"/>
      </g>
     </g>
    </g>
    <g id="xtick_3">
     <g id="line2d_5">
      <path d="M 216.639221 318.04 
L 216.639221 26.88 
" clip-path="url(#p8d9953076b)" style="fill: none; stroke: #b0b0b0; stroke-opacity: 0.3; stroke-width: 0.8; stroke-linecap: square"/>
     </g>
     <g id="line2d_6">
      <g>
       <use xlink:href="#m61f1ced58d" x="216.639221" y="318.04" style="stroke: #000000; stroke-width: 0.8"/>
      </g>
     </g>
     <g id="text_3">
      <!-- 15 -->
      <g transform="translate(210.276721 332.638438) scale(0.1 -0.1)">
       <use xlink:href="#DejaVuSans-31"/>
       <use xlink:href="#DejaVuSans-35" transform="translate(63.623047 0)"/>
      </g>
     </g>
    </g>
    <g id="xtick_4">
     <g id="line2d_7">
      <path d="M 288.51974 318.04 
L 288.51974 26.88 
" clip-path="url(#p8d9953076b)" style="fill: none; stroke: #b0b0b0; stroke-opacity: 0.3; stroke-width: 0.8; stroke-linecap: square"/>
     </g>
     <g id="line2d_8">
      <g>
       <use xlink:href="#m61f1ced58d" x="288.51974" y="318.04" style="stroke: #000000; stroke-width: 0.8"/>
      </g>
     </g>
     <g id="text_4">
      <!-- 20 -->
      <g transform="translate(282.15724 332.638438) scale(0.1 -0.1)">
       <defs>
        <path id="DejaVuSans-32" d="M 1228 531 
L 3431 531 
L 3431 0 
L 469 0 
L 469 531 
Q 828 903 1448 1529 
Q 2069 2156 2228 2338 
Q 2531 2678 2651 2914 
Q 2772 3150 2772 3378 
Q 2772 3750 2511 3984 
Q 2250 4219 1831 4219 
Q 1534 4219 1204 4116 
Q 875 4013 500 3803 
L 500 4441 
Q 881 4594 1212 4672 
Q 1544 4750 1819 4750 
Q 2544 4750 2975 4387 
Q 3406 4025 3406 3419 
Q 3406 3131 3298 2873 
Q 3191 2616 2906 2266 
Q 2828 2175 2409 1742 
Q 1991 1309 1228 531 
z
" transform="scale(0.015625)"/>
       </defs>
       <use xlink:href="#DejaVuSans-32"/>
       <use xlink:href="#DejaVuSans-30" transform="translate(63.623047 0)"/>
      </g>
     </g>
    </g>
    <g id="xtick_5">
     <g id="line2d_9">
      <path d="M 360.40026 318.04 
L 360.40026 26.88 
" clip-path="url(#p8d9953076b)" style="fill: none; stroke: #b0b0b0; stroke-opacity: 0.3; stroke-width: 0.8; stroke-linecap: square"/>
     </g>
     <g id="line2d_10">
      <g>
       <use xlink:href="#m61f1ced58d" x="360.40026" y="318.04" style="stroke: #000000; stroke-width: 0.8"/>
      </g>
     </g>
     <g id="text_5">
      <!-- 25 -->
      <g transform="translate(354.03776 332.638438) scale(0.1 -0.1)">
       <use xlink:href="#DejaVuSans-32"/>
       <use xlink:href="#DejaVuSans-35" transform="translate(63.623047 0)"/>
      </g>
     </g>
    </g>
    <g id="xtick_6">
     <g id="line2d_11">
      <path d="M 432.280779 318.04 
L 432.280779 26.88 
" clip-path="url(#p8d9953076b)" style="fill: none; stroke: #b0b0b0; stroke-opacity: 0.3; stroke-width: 0.8; stroke-linecap: square"/>
     </g>
     <g id="line2d_12">
      <g>
       <use xlink:href="#m61f1ced58d" x="432.280779" y="318.04" style="stroke: #000000; stroke-width: 0.8"/>
      </g>
     </g>
     <g id="text_6">
      <!-- 30 -->
      <g transform="translate(425.918279 332.638438) scale(0.1 -0.1)">
       <defs>
        <path id="DejaVuSans-33" d="M 2597 2516 
Q 3050 2419 3304 2112 
Q 3559 1806 3559 1356 
Q 3559 666 3084 287 
Q 2609 -91 1734 -91 
Q 1441 -91 1130 -33 
Q 819 25 488 141 
L 488 750 
Q 750 597 1062 519 
Q 1375 441 1716 441 
Q 2309 441 2620 675 
Q 2931 909 2931 1356 
Q 2931 1769 2642 2001 
Q 2353 2234 1838 2234 
L 1294 2234 
L 1294 2753 
L 1863 2753 
Q 2328 2753 2575 2939 
Q 2822 3125 2822 3475 
Q 2822 3834 2567 4026 
Q 2313 4219 1838 4219 
Q 1578 4219 1281 4162 
Q 984 4106 628 3988 
L 628 4550 
Q 988 4650 1302 4700 
Q 1616 4750 1894 4750 
Q 2613 4750 3031 4423 
Q 3450 4097 3450 3541 
Q 3450 3153 3228 2886 
Q 3006 2619 2597 2516 
z
" transform="scale(0.015625)"/>
       </defs>
       <use xlink:href="#DejaVuSans-33"/>
       <use xlink:href="#DejaVuSans-30" transform="translate(63.623047 0)"/>
      </g>
     </g>
    </g>
    <g id="xtick_7">
     <g id="line2d_13">
      <path d="M 504.161299 318.04 
L 504.161299 26.88 
" clip-path="url(#p8d9953076b)" style="fill: none; stroke: #b0b0b0; stroke-opacity: 0.3; stroke-width: 0.8; stroke-linecap: square"/>
     </g>
     <g id="line2d_14">
      <g>
       <use xlink:href="#m61f1ced58d" x="504.161299" y="318.04" style="stroke: #000000; stroke-width: 0.8"/>
      </g>
     </g>
     <g id="text_7">
      <!-- 35 -->
      <g transform="translate(497.798799 332.638438) scale(0.1 -0.1)">
       <use xlink:href="#DejaVuSans-33"/>
       <use xlink:href="#DejaVuSans-35" transform="translate(63.623047 0)"/>
      </g>
     </g>
    </g>
    <g id="xtick_8">
     <g id="line2d_15">
      <path d="M 576.041818 318.04 
L 576.041818 26.88 
" clip-path="url(#p8d9953076b)" style="fill: none; stroke: #b0b0b0; stroke-opacity: 0.3; stroke-width: 0.8; stroke-linecap: square"/>
     </g>
     <g id="line2d_16">
      <g>
       <use xlink:href="#m61f1ced58d" x="576.041818" y="318.04" style="stroke: #000000; stroke-width: 0.8"/>
      </g>
     </g>
     <g id="text_8">
      <!-- 40 -->
      <g transform="translate(569.679318 332.638438) scale(0.1 -0.1)">
       <defs>
        <path id="DejaVuSans-34" d="M 2419 4116 
L 825 1625 
L 2419 1625 
L 2419 4116 
z
M 2253 4666 
L 3047 4666 
L 3047 1625 
L 3713 1625 
L 3713 1100 
L 3047 1100 
L 3047 0 
L 2419 0 
L 2419 1100 
L 313 1100 
L 313 1709 
L 2253 4666 
z
" transform="scale(0.015625)"/>
       </defs>
       <use xlink:href="#DejaVuSans-34"/>
       <use xlink:href="#DejaVuSans-30" transform="translate(63.623047 0)"/>
      </g>
     </g>
    </g>
    <g id="text_9">
     <!-- Probe turn -->
     <g transform="translate(298.424844 346.316563) scale(0.1 -0.1)">
      <defs>
       <path id="DejaVuSans-50" d="M 1259 4147 
L 1259 2394 
L 2053 2394 
Q 2494 2394 2734 2622 
Q 2975 2850 2975 3272 
Q 2975 3691 2734 3919 
Q 2494 4147 2053 4147 
L 1259 4147 
z
M 628 4666 
L 2053 4666 
Q 2838 4666 3239 4311 
Q 3641 3956 3641 3272 
Q 3641 2581 3239 2228 
Q 2838 1875 2053 1875 
L 1259 1875 
L 1259 0 
L 628 0 
L 628 4666 
z
" transform="scale(0.015625)"/>
       <path id="DejaVuSans-72" d="M 2631 2963 
Q 2534 3019 2420 3045 
Q 2306 3072 2169 3072 
Q 1681 3072 1420 2755 
Q 1159 2438 1159 1844 
L 1159 0 
L 581 0 
L 581 3500 
L 1159 3500 
L 1159 2956 
Q 1341 3275 1631 3429 
Q 1922 3584 2338 3584 
Q 2397 3584 2469 3576 
Q 2541 3569 2628 3553 
L 2631 2963 
z
" transform="scale(0.015625)"/>
       <path id="DejaVuSans-6f" d="M 1959 3097 
Q 1497 3097 1228 2736 
Q 959 2375 959 1747 
Q 959 1119 1226 758 
Q 1494 397 1959 397 
Q 2419 397 2687 759 
Q 2956 1122 2956 1747 
Q 2956 2369 2687 2733 
Q 2419 3097 1959 3097 
z
M 1959 3584 
Q 2709 3584 3137 3096 
Q 3566 2609 3566 1747 
Q 3566 888 3137 398 
Q 2709 -91 1959 -91 
Q 1206 -91 779 398 
Q 353 888 353 1747 
Q 353 2609 779 3096 
Q 1206 3584 1959 3584 
z
" transform="scale(0.015625)"/>
       <path id="DejaVuSans-62" d="M 3116 1747 
Q 3116 2381 2855 2742 
Q 2594 3103 2138 3103 
Q 1681 3103 1420 2742 
Q 1159 2381 1159 1747 
Q 1159 1113 1420 752 
Q 1681 391 2138 391 
Q 2594 391 2855 752 
Q 3116 1113 3116 1747 
z
M 1159 2969 
Q 1341 3281 1617 3432 
Q 1894 3584 2278 3584 
Q 2916 3584 3314 3078 
Q 3713 2572 3713 1747 
Q 3713 922 3314 415 
Q 2916 -91 2278 -91 
Q 1894 -91 1617 61 
Q 1341 213 1159 525 
L 1159 0 
L 581 0 
L 581 4863 
L 1159 4863 
L 1159 2969 
z
" transform="scale(0.015625)"/>
       <path id="DejaVuSans-65" d="M 3597 1894 
L 3597 1613 
L 953 1613 
Q 991 1019 1311 708 
Q 1631 397 2203 397 
Q 2534 397 2845 478 
Q 3156 559 3463 722 
L 3463 178 
Q 3153 47 2828 -22 
Q 2503 -91 2169 -91 
Q 1331 -91 842 396 
Q 353 884 353 1716 
Q 353 2575 817 3079 
Q 1281 3584 2069 3584 
Q 2775 3584 3186 3129 
Q 3597 2675 3597 1894 
z
M 3022 2063 
Q 3016 2534 2758 2815 
Q 2500 3097 2075 3097 
Q 1594 3097 1305 2825 
Q 1016 2553 972 2059 
L 3022 2063 
z
" transform="scale(0.015625)"/>
       <path id="DejaVuSans-20" transform="scale(0.015625)"/>
       <path id="DejaVuSans-74" d="M 1172 4494 
L 1172 3500 
L 2356 3500 
L 2356 3053 
L 1172 3053 
L 1172 1153 
Q 1172 725 1289 603 
Q 1406 481 1766 481 
L 2356 481 
L 2356 0 
L 1766 0 
Q 1100 0 847 248 
Q 594 497 594 1153 
L 594 3053 
L 172 3053 
L 172 3500 
L 594 3500 
L 594 4494 
L 1172 4494 
z
" transform="scale(0.015625)"/>
       <path id="DejaVuSans-75" d="M 544 1381 
L 544 3500 
L 1119 3500 
L 1119 1403 
Q 1119 906 1312 657 
Q 1506 409 1894 409 
Q 2359 409 2629 706 
Q 2900 1003 2900 1516 
L 2900 3500 
L 3475 3500 
L 3475 0 
L 2900 0 
L 2900 538 
Q 2691 219 2414 64 
Q 2138 -91 1772 -91 
Q 1169 -91 856 284 
Q 544 659 544 1381 
z
M 1991 3584 
L 1991 3584 
z
" transform="scale(0.015625)"/>
       <path id="DejaVuSans-6e" d="M 3513 2113 
L 3513 0 
L 2938 0 
L 2938 2094 
Q 2938 2591 2744 2837 
Q 2550 3084 2163 3084 
Q 1697 3084 1428 2787 
Q 1159 2491 1159 1978 
L 1159 0 
L 581 0 
L 581 3500 
L 1159 3500 
L 1159 2956 
Q 1366 3272 1645 3428 
Q 1925 3584 2291 3584 
Q 2894 3584 3203 3211 
Q 3513 2838 3513 2113 
z
" transform="scale(0.015625)"/>
      </defs>
      <use xlink:href="#DejaVuSans-50"/>
      <use xlink:href="#DejaVuSans-72" transform="translate(58.552734 0)"/>
      <use xlink:href="#DejaVuSans-6f" transform="translate(97.416016 0)"/>
      <use xlink:href="#DejaVuSans-62" transform="translate(158.597656 0)"/>
      <use xlink:href="#DejaVuSans-65" transform="translate(222.074219 0)"/>
      <use xlink:href="#DejaVuSans-20" transform="translate(283.597656 0)"/>
      <use xlink:href="#DejaVuSans-74" transform="translate(315.384766 0)"/>
      <use xlink:href="#DejaVuSans-75" transform="translate(354.59375 0)"/>
      <use xlink:href="#DejaVuSans-72" transform="translate(417.972656 0)"/>
      <use xlink:href="#DejaVuSans-6e" transform="translate(457.335938 0)"/>
     </g>
    </g>
   </g>
   <g id="matplotlib.axis_2">
    <g id="ytick_1">
     <g id="line2d_17">
      <path d="M 47.72 318.04 
L 601.2 318.04 
" clip-path="url(#p8d9953076b)" style="fill: none; stroke: #b0b0b0; stroke-opacity: 0.3; stroke-width: 0.8; stroke-linecap: square"/>
     </g>
     <g id="line2d_18">
      <defs>
       <path id="m4200b99a74" d="M 0 0 
L -3.5 0 
" style="stroke: #000000; stroke-width: 0.8"/>
      </defs>
      <g>
       <use xlink:href="#m4200b99a74" x="47.72" y="318.04" style="stroke: #000000; stroke-width: 0.8"/>
      </g>
     </g>
     <g id="text_10">
      <!-- 1.0 -->
      <g transform="translate(24.816875 321.839219) scale(0.1 -0.1)">
       <defs>
        <path id="DejaVuSans-2e" d="M 684 794 
L 1344 794 
L 1344 0 
L 684 0 
L 684 794 
z
" transform="scale(0.015625)"/>
       </defs>
       <use xlink:href="#DejaVuSans-31"/>
       <use xlink:href="#DejaVuSans-2e" transform="translate(63.623047 0)"/>
       <use xlink:href="#DejaVuSans-30" transform="translate(95.410156 0)"/>
      </g>
     </g>
    </g>
    <g id="ytick_2">
     <g id="line2d_19">
      <path d="M 47.72 281.645 
L 601.2 281.645 
" clip-path="url(#p8d9953076b)" style="fill: none; stroke: #b0b0b0; stroke-opacity: 0.3; stroke-width: 0.8; stroke-linecap: square"/>
     </g>
     <g id="line2d_20">
      <g>
       <use xlink:href="#m4200b99a74" x="47.72" y="281.645" style="stroke: #000000; stroke-width: 0.8"/>
      </g>
     </g>
     <g id="text_11">
      <!-- 1.5 -->
      <g transform="translate(24.816875 285.444219) scale(0.1 -0.1)">
       <use xlink:href="#DejaVuSans-31"/>
       <use xlink:href="#DejaVuSans-2e" transform="translate(63.623047 0)"/>
       <use xlink:href="#DejaVuSans-35" transform="translate(95.410156 0)"/>
      </g>
     </g>
    </g>
    <g id="ytick_3">
     <g id="line2d_21">
      <path d="M 47.72 245.25 
L 601.2 245.25 
" clip-path="url(#p8d9953076b)" style="fill: none; stroke: #b0b0b0; stroke-opacity: 0.3; stroke-width: 0.8; stroke-linecap: square"/>
     </g>
     <g id="line2d_22">
      <g>
       <use xlink:href="#m4200b99a74" x="47.72" y="245.25" style="stroke: #000000; stroke-width: 0.8"/>
      </g>
     </g>
     <g id="text_12">
      <!-- 2.0 -->
      <g transform="translate(24.816875 249.049219) scale(0.1 -0.1)">
       <use xlink:href="#DejaVuSans-32"/>
       <use xlink:href="#DejaVuSans-2e" transform="translate(63.623047 0)"/>
       <use xlink:href="#DejaVuSans-30" transform="translate(95.410156 0)"/>
      </g>
     </g>
    </g>
    <g id="ytick_4">
     <g id="line2d_23">
      <path d="M 47.72 208.855 
L 601.2 208.855 
" clip-path="url(#p8d9953076b)" style="fill: none; stroke: #b0b0b0; stroke-opacity: 0.3; stroke-width: 0.8; stroke-linecap: square"/>
     </g>
     <g id="line2d_24">
      <g>
       <use xlink:href="#m4200b99a74" x="47.72" y="208.855" style="stroke: #000000; stroke-width: 0.8"/>
      </g>
     </g>
     <g id="text_13">
      <!-- 2.5 -->
      <g transform="translate(24.816875 212.654219) scale(0.1 -0.1)">
       <use xlink:href="#DejaVuSans-32"/>
       <use xlink:href="#DejaVuSans-2e" transform="translate(63.623047 0)"/>
       <use xlink:href="#DejaVuSans-35" transform="translate(95.410156 0)"/>
      </g>
     </g>
    </g>
    <g id="ytick_5">
     <g id="line2d_25">
      <path d="M 47.72 172.46 
L 601.2 172.46 
" clip-path="url(#p8d9953076b)" style="fill: none; stroke: #b0b0b0; stroke-opacity: 0.3; stroke-width: 0.8; stroke-linecap: square"/>
     </g>
     <g id="line2d_26">
      <g>
       <use xlink:href="#m4200b99a74" x="47.72" y="172.46" style="stroke: #000000; stroke-width: 0.8"/>
      </g>
     </g>
     <g id="text_14">
      <!-- 3.0 -->
      <g transform="translate(24.816875 176.259219) scale(0.1 -0.1)">
       <use xlink:href="#DejaVuSans-33"/>
       <use xlink:href="#DejaVuSans-2e" transform="translate(63.623047 0)"/>
       <use xlink:href="#DejaVuSans-30" transform="translate(95.410156 0)"/>
      </g>
     </g>
    </g>
    <g id="ytick_6">
     <g id="line2d_27">
      <path d="M 47.72 136.065 
L 601.2 136.065 
" clip-path="url(#p8d9953076b)" style="fill: none; stroke: #b0b0b0; stroke-opacity: 0.3; stroke-width: 0.8; stroke-linecap: square"/>
     </g>
     <g id="line2d_28">
      <g>
       <use xlink:href="#m4200b99a74" x="47.72" y="136.065" style="stroke: #000000; stroke-width: 0.8"/>
      </g>
     </g>
     <g id="text_15">
      <!-- 3.5 -->
      <g transform="translate(24.816875 139.864219) scale(0.1 -0.1)">
       <use xlink:href="#DejaVuSans-33"/>
       <use xlink:href="#DejaVuSans-2e" transform="translate(63.623047 0)"/>
       <use xlink:href="#DejaVuSans-35" transform="translate(95.410156 0)"/>
      </g>
     </g>
    </g>
    <g id="ytick_7">
     <g id="line2d_29">
      <path d="M 47.72 99.67 
L 601.2 99.67 
" clip-path="url(#p8d9953076b)" style="fill: none; stroke: #b0b0b0; stroke-opacity: 0.3; stroke-width: 0.8; stroke-linecap: square"/>
     </g>
     <g id="line2d_30">
      <g>
       <use xlink:href="#m4200b99a74" x="47.72" y="99.67" style="stroke: #000000; stroke-width: 0.8"/>
      </g>
     </g>
     <g id="text_16">
      <!-- 4.0 -->
      <g transform="translate(24.816875 103.469219) scale(0.1 -0.1)">
       <use xlink:href="#DejaVuSans-34"/>
       <use xlink:href="#DejaVuSans-2e" transform="translate(63.623047 0)"/>
       <use xlink:href="#DejaVuSans-30" transform="translate(95.410156 0)"/>
      </g>
     </g>
    </g>
    <g id="ytick_8">
     <g id="line2d_31">
      <path d="M 47.72 63.275 
L 601.2 63.275 
" clip-path="url(#p8d9953076b)" style="fill: none; stroke: #b0b0b0; stroke-opacity: 0.3; stroke-width: 0.8; stroke-linecap: square"/>
     </g>
     <g id="line2d_32">
      <g>
       <use xlink:href="#m4200b99a74" x="47.72" y="63.275" style="stroke: #000000; stroke-width: 0.8"/>
      </g>
     </g>
     <g id="text_17">
      <!-- 4.5 -->
      <g transform="translate(24.816875 67.074219) scale(0.1 -0.1)">
       <use xlink:href="#DejaVuSans-34"/>
       <use xlink:href="#DejaVuSans-2e" transform="translate(63.623047 0)"/>
       <use xlink:href="#DejaVuSans-35" transform="translate(95.410156 0)"/>
      </g>
     </g>
    </g>
    <g id="ytick_9">
     <g id="line2d_33">
      <path d="M 47.72 26.88 
L 601.2 26.88 
" clip-path="url(#p8d9953076b)" style="fill: none; stroke: #b0b0b0; stroke-opacity: 0.3; stroke-width: 0.8; stroke-linecap: square"/>
     </g>
     <g id="line2d_34">
      <g>
       <use xlink:href="#m4200b99a74" x="47.72" y="26.88" style="stroke: #000000; stroke-width: 0.8"/>
      </g>
     </g>
     <g id="text_18">
      <!-- 5.0 -->
      <g transform="translate(24.816875 30.679219) scale(0.1 -0.1)">
       <use xlink:href="#DejaVuSans-35"/>
       <use xlink:href="#DejaVuSans-2e" transform="translate(63.623047 0)"/>
       <use xlink:href="#DejaVuSans-30" transform="translate(95.410156 0)"/>
      </g>
     </g>
    </g>
    <g id="text_19">
     <!-- Mean PersonaScore -->
     <g transform="translate(18.737188 221.537344) rotate(-90) scale(0.1 -0.1)">
      <defs>
       <path id="DejaVuSans-4d" d="M 628 4666 
L 1569 4666 
L 2759 1491 
L 3956 4666 
L 4897 4666 
L 4897 0 
L 4281 0 
L 4281 4097 
L 3078 897 
L 2444 897 
L 1241 4097 
L 1241 0 
L 628 0 
L 628 4666 
z
" transform="scale(0.015625)"/>
       <path id="DejaVuSans-61" d="M 2194 1759 
Q 1497 1759 1228 1600 
Q 959 1441 959 1056 
Q 959 750 1161 570 
Q 1363 391 1709 391 
Q 2188 391 2477 730 
Q 2766 1069 2766 1631 
L 2766 1759 
L 2194 1759 
z
M 3341 1997 
L 3341 0 
L 2766 0 
L 2766 531 
Q 2569 213 2275 61 
Q 1981 -91 1556 -91 
Q 1019 -91 701 211 
Q 384 513 384 1019 
Q 384 1609 779 1909 
Q 1175 2209 1959 2209 
L 2766 2209 
L 2766 2266 
Q 2766 2663 2505 2880 
Q 2244 3097 1772 3097 
Q 1472 3097 1187 3025 
Q 903 2953 641 2809 
L 641 3341 
Q 956 3463 1253 3523 
Q 1550 3584 1831 3584 
Q 2591 3584 2966 3190 
Q 3341 2797 3341 1997 
z
" transform="scale(0.015625)"/>
       <path id="DejaVuSans-73" d="M 2834 3397 
L 2834 2853 
Q 2591 2978 2328 3040 
Q 2066 3103 1784 3103 
Q 1356 3103 1142 2972 
Q 928 2841 928 2578 
Q 928 2378 1081 2264 
Q 1234 2150 1697 2047 
L 1894 2003 
Q 2506 1872 2764 1633 
Q 3022 1394 3022 966 
Q 3022 478 2636 193 
Q 2250 -91 1575 -91 
Q 1294 -91 989 -36 
Q 684 19 347 128 
L 347 722 
Q 666 556 975 473 
Q 1284 391 1588 391 
Q 1994 391 2212 530 
Q 2431 669 2431 922 
Q 2431 1156 2273 1281 
Q 2116 1406 1581 1522 
L 1381 1569 
Q 847 1681 609 1914 
Q 372 2147 372 2553 
Q 372 3047 722 3315 
Q 1072 3584 1716 3584 
Q 2034 3584 2315 3537 
Q 2597 3491 2834 3397 
z
" transform="scale(0.015625)"/>
       <path id="DejaVuSans-53" d="M 3425 4513 
L 3425 3897 
Q 3066 4069 2747 4153 
Q 2428 4238 2131 4238 
Q 1616 4238 1336 4038 
Q 1056 3838 1056 3469 
Q 1056 3159 1242 3001 
Q 1428 2844 1947 2747 
L 2328 2669 
Q 3034 2534 3370 2195 
Q 3706 1856 3706 1288 
Q 3706 609 3251 259 
Q 2797 -91 1919 -91 
Q 1588 -91 1214 -16 
Q 841 59 441 206 
L 441 856 
Q 825 641 1194 531 
Q 1563 422 1919 422 
Q 2459 422 2753 634 
Q 3047 847 3047 1241 
Q 3047 1584 2836 1778 
Q 2625 1972 2144 2069 
L 1759 2144 
Q 1053 2284 737 2584 
Q 422 2884 422 3419 
Q 422 4038 858 4394 
Q 1294 4750 2059 4750 
Q 2388 4750 2728 4690 
Q 3069 4631 3425 4513 
z
" transform="scale(0.015625)"/>
       <path id="DejaVuSans-63" d="M 3122 3366 
L 3122 2828 
Q 2878 2963 2633 3030 
Q 2388 3097 2138 3097 
Q 1578 3097 1268 2742 
Q 959 2388 959 1747 
Q 959 1106 1268 751 
Q 1578 397 2138 397 
Q 2388 397 2633 464 
Q 2878 531 3122 666 
L 3122 134 
Q 2881 22 2623 -34 
Q 2366 -91 2075 -91 
Q 1284 -91 818 406 
Q 353 903 353 1747 
Q 353 2603 823 3093 
Q 1294 3584 2113 3584 
Q 2378 3584 2631 3529 
Q 2884 3475 3122 3366 
z
" transform="scale(0.015625)"/>
      </defs>
      <use xlink:href="#DejaVuSans-4d"/>
      <use xlink:href="#DejaVuSans-65" transform="translate(86.279297 0)"/>
      <use xlink:href="#DejaVuSans-61" transform="translate(147.802734 0)"/>
      <use xlink:href="#DejaVuSans-6e" transform="translate(209.082031 0)"/>
      <use xlink:href="#DejaVuSans-20" transform="translate(272.460938 0)"/>
      <use xlink:href="#DejaVuSans-50" transform="translate(304.248047 0)"/>
      <use xlink:href="#DejaVuSans-65" transform="translate(360.925781 0)"/>
      <use xlink:href="#DejaVuSans-72" transform="translate(422.449219 0)"/>
      <use xlink:href="#DejaVuSans-73" transform="translate(463.5625 0)"/>
      <use xlink:href="#DejaVuSans-6f" transform="translate(515.662109 0)"/>
      <use xlink:href="#DejaVuSans-6e" transform="translate(576.84375 0)"/>
      <use xlink:href="#DejaVuSans-61" transform="translate(640.222656 0)"/>
      <use xlink:href="#DejaVuSans-53" transform="translate(701.501953 0)"/>
      <use xlink:href="#DejaVuSans-63" transform="translate(764.978516 0)"/>
      <use xlink:href="#DejaVuSans-6f" transform="translate(819.958984 0)"/>
      <use xlink:href="#DejaVuSans-72" transform="translate(881.140625 0)"/>
      <use xlink:href="#DejaVuSans-65" transform="translate(920.003906 0)"/>
     </g>
    </g>
   </g>
   <g id="line2d_35">
    <path d="M 72.878182 99.063417 
L 144.758701 90.57125 
L 216.639221 101.48975 
L 288.51974 101.48975 
L 360.40026 94.817333 
L 432.280779 103.916083 
L 504.161299 94.21075 
L 576.041818 100.276583 
" clip-path="url(#p8d9953076b)" style="fill: none; stroke: #9e9e9e; stroke-width: 2; stroke-linecap: square"/>
    <defs>
     <path id="mc83cafc236" d="M 0 3 
C 0.795609 3 1.55874 2.683901 2.12132 2.12132 
C 2.683901 1.55874 3 0.795609 3 0 
C 3 -0.795609 2.683901 -1.55874 2.12132 -2.12132 
C 1.55874 -2.683901 0.795609 -3 0 -3 
C -0.795609 -3 -1.55874 -2.683901 -2.12132 -2.12132 
C -2.683901 -1.55874 -3 -0.795609 -3 0 
C -3 0.795609 -2.683901 1.55874 -2.12132 2.12132 
C -1.55874 2.683901 -0.795609 3 0 3 
z
" style="stroke: #9e9e9e"/>
    </defs>
    <g clip-path="url(#p8d9953076b)">
     <use xlink:href="#mc83cafc236" x="72.878182" y="99.063417" style="fill: #9e9e9e; stroke: #9e9e9e"/>
     <use xlink:href="#mc83cafc236" x="144.758701" y="90.57125" style="fill: #9e9e9e; stroke: #9e9e9e"/>
     <use xlink:href="#mc83cafc236" x="216.639221" y="101.48975" style="fill: #9e9e9e; stroke: #9e9e9e"/>
     <use xlink:href="#mc83cafc236" x="288.51974" y="101.48975" style="fill: #9e9e9e; stroke: #9e9e9e"/>
     <use xlink:href="#mc83cafc236" x="360.40026" y="94.817333" style="fill: #9e9e9e; stroke: #9e9e9e"/>
     <use xlink:href="#mc83cafc236" x="432.280779" y="103.916083" style="fill: #9e9e9e; stroke: #9e9e9e"/>
     <use xlink:href="#mc83cafc236" x="504.161299" y="94.21075" style="fill: #9e9e9e; stroke: #9e9e9e"/>
     <use xlink:href="#mc83cafc236" x="576.041818" y="100.276583" style="fill: #9e9e9e; stroke: #9e9e9e"/>
    </g>
   </g>
   <g id="line2d_36">
    <path d="M 72.878182 70.554 
L 144.758701 71.160583 
L 216.639221 86.93175 
L 288.51974 67.521083 
L 360.40026 85.112 
L 432.280779 83.29225 
L 504.161299 79.046167 
L 576.041818 83.29225 
" clip-path="url(#p8d9953076b)" style="fill: none; stroke: #2196f3; stroke-width: 2; stroke-linecap: square"/>
    <defs>
     <path id="med127f3281" d="M 0 3 
C 0.795609 3 1.55874 2.683901 2.12132 2.12132 
C 2.683901 1.55874 3 0.795609 3 0 
C 3 -0.795609 2.683901 -1.55874 2.12132 -2.12132 
C 1.55874 -2.683901 0.795609 -3 0 -3 
C -0.795609 -3 -1.55874 -2.683901 -2.12132 -2.12132 
C -2.683901 -1.55874 -3 -0.795609 -3 0 
C -3 0.795609 -2.683901 1.55874 -2.12132 2.12132 
C -1.55874 2.683901 -0.795609 3 0 3 
z
" style="stroke: #2196f3"/>
    </defs>
    <g clip-path="url(#p8d9953076b)">
     <use xlink:href="#med127f3281" x="72.878182" y="70.554" style="fill: #2196f3; stroke: #2196f3"/>
     <use xlink:href="#med127f3281" x="144.758701" y="71.160583" style="fill: #2196f3; stroke: #2196f3"/>
     <use xlink:href="#med127f3281" x="216.639221" y="86.93175" style="fill: #2196f3; stroke: #2196f3"/>
     <use xlink:href="#med127f3281" x="288.51974" y="67.521083" style="fill: #2196f3; stroke: #2196f3"/>
     <use xlink:href="#med127f3281" x="360.40026" y="85.112" style="fill: #2196f3; stroke: #2196f3"/>
     <use xlink:href="#med127f3281" x="432.280779" y="83.29225" style="fill: #2196f3; stroke: #2196f3"/>
     <use xlink:href="#med127f3281" x="504.161299" y="79.046167" style="fill: #2196f3; stroke: #2196f3"/>
     <use xlink:href="#med127f3281" x="576.041818" y="83.29225" style="fill: #2196f3; stroke: #2196f3"/>
    </g>
   </g>
   <g id="line2d_37">
    <path d="M 72.878182 72.980333 
L 144.758701 68.127667 
L 216.639221 66.9145 
L 288.51974 59.6355 
L 360.40026 65.701333 
L 432.280779 78.439583 
L 504.161299 69.340833 
L 576.041818 74.800083 
" clip-path="url(#p8d9953076b)" style="fill: none; stroke: #4caf50; stroke-width: 2; stroke-linecap: square"/>
    <defs>
     <path id="m39283b306f" d="M 0 3 
C 0.795609 3 1.55874 2.683901 2.12132 2.12132 
C 2.683901 1.55874 3 0.795609 3 0 
C 3 -0.795609 2.683901 -1.55874 2.12132 -2.12132 
C 1.55874 -2.683901 0.795609 -3 0 -3 
C -0.795609 -3 -1.55874 -2.683901 -2.12132 -2.12132 
C -2.683901 -1.55874 -3 -0.795609 -3 0 
C -3 0.795609 -2.683901 1.55874 -2.12132 2.12132 
C -1.55874 2.683901 -0.795609 3 0 3 
z
" style="stroke: #4caf50"/>
    </defs>
    <g clip-path="url(#p8d9953076b)">
     <use xlink:href="#m39283b306f" x="72.878182" y="72.980333" style="fill: #4caf50; stroke: #4caf50"/>
     <use xlink:href="#m39283b306f" x="144.758701" y="68.127667" style="fill: #4caf50; stroke: #4caf50"/>
     <use xlink:href="#m39283b306f" x="216.639221" y="66.9145" style="fill: #4caf50; stroke: #4caf50"/>
     <use xlink:href="#m39283b306f" x="288.51974" y="59.6355" style="fill: #4caf50; stroke: #4caf50"/>
     <use xlink:href="#m39283b306f" x="360.40026" y="65.701333" style="fill: #4caf50; stroke: #4caf50"/>
     <use xlink:href="#m39283b306f" x="432.280779" y="78.439583" style="fill: #4caf50; stroke: #4caf50"/>
     <use xlink:href="#m39283b306f" x="504.161299" y="69.340833" style="fill: #4caf50; stroke: #4caf50"/>
     <use xlink:href="#m39283b306f" x="576.041818" y="74.800083" style="fill: #4caf50; stroke: #4caf50"/>
    </g>
   </g>
   <g id="line2d_38">
    <path d="M 72.878182 168.213917 
L 144.758701 167.607333 
L 216.639221 140.917667 
L 288.51974 153.049333 
L 360.40026 151.229583 
L 432.280779 139.7045 
L 504.161299 162.754667 
L 576.041818 165.787583 
" clip-path="url(#p8d9953076b)" style="fill: none; stroke: #ff9800; stroke-width: 2; stroke-linecap: square"/>
    <defs>
     <path id="m4cc2d5256b" d="M 0 3 
C 0.795609 3 1.55874 2.683901 2.12132 2.12132 
C 2.683901 1.55874 3 0.795609 3 0 
C 3 -0.795609 2.683901 -1.55874 2.12132 -2.12132 
C 1.55874 -2.683901 0.795609 -3 0 -3 
C -0.795609 -3 -1.55874 -2.683901 -2.12132 -2.12132 
C -2.683901 -1.55874 -3 -0.795609 -3 0 
C -3 0.795609 -2.683901 1.55874 -2.12132 2.12132 
C -1.55874 2.683901 -0.795609 3 0 3 
z
" style="stroke: #ff9800"/>
    </defs>
    <g clip-path="url(#p8d9953076b)">
     <use xlink:href="#m4cc2d5256b" x="72.878182" y="168.213917" style="fill: #ff9800; stroke: #ff9800"/>
     <use xlink:href="#m4cc2d5256b" x="144.758701" y="167.607333" style="fill: #ff9800; stroke: #ff9800"/>
     <use xlink:href="#m4cc2d5256b" x="216.639221" y="140.917667" style="fill: #ff9800; stroke: #ff9800"/>
     <use xlink:href="#m4cc2d5256b" x="288.51974" y="153.049333" style="fill: #ff9800; stroke: #ff9800"/>
     <use xlink:href="#m4cc2d5256b" x="360.40026" y="151.229583" style="fill: #ff9800; stroke: #ff9800"/>
     <use xlink:href="#m4cc2d5256b" x="432.280779" y="139.7045" style="fill: #ff9800; stroke: #ff9800"/>
     <use xlink:href="#m4cc2d5256b" x="504.161299" y="162.754667" style="fill: #ff9800; stroke: #ff9800"/>
     <use xlink:href="#m4cc2d5256b" x="576.041818" y="165.787583" style="fill: #ff9800; stroke: #ff9800"/>
    </g>
   </g>
   <g id="line2d_39">
    <path d="M 47.72 136.065 
L 601.2 136.065 
" clip-path="url(#p8d9953076b)" style="fill: none; stroke-dasharray: 5.55,2.4; stroke-dashoffset: 0; stroke: #000000; stroke-opacity: 0.4; stroke-width: 1.5"/>
   </g>
   <g id="patch_3">
    <path d="M 47.72 318.04 
L 47.72 26.88 
" style="fill: none; stroke: #000000; stroke-width: 0.8; stroke-linejoin: miter; stroke-linecap: square"/>
   </g>
   <g id="patch_4">
    <path d="M 601.2 318.04 
L 601.2 26.88 
" style="fill: none; stroke: #000000; stroke-width: 0.8; stroke-linejoin: miter; stroke-linecap: square"/>
   </g>
   <g id="patch_5">
    <path d="M 47.72 318.04 
L 601.2 318.04 
" style="fill: none; stroke: #000000; stroke-width: 0.8; stroke-linejoin: miter; stroke-linecap: square"/>
   </g>
   <g id="patch_6">
    <path d="M 47.72 26.88 
L 601.2 26.88 
" style="fill: none; stroke: #000000; stroke-width: 0.8; stroke-linejoin: miter; stroke-linecap: square"/>
   </g>
   <g id="text_20">
    <!-- PersonaScore over conversation depth — 4-condition comparison -->
    <g transform="translate(128.000312 20.88) scale(0.12 -0.12)">
     <defs>
      <path id="DejaVuSans-76" d="M 191 3500 
L 800 3500 
L 1894 563 
L 2988 3500 
L 3597 3500 
L 2284 0 
L 1503 0 
L 191 3500 
z
" transform="scale(0.015625)"/>
      <path id="DejaVuSans-69" d="M 603 3500 
L 1178 3500 
L 1178 0 
L 603 0 
L 603 3500 
z
M 603 4863 
L 1178 4863 
L 1178 4134 
L 603 4134 
L 603 4863 
z
" transform="scale(0.015625)"/>
      <path id="DejaVuSans-64" d="M 2906 2969 
L 2906 4863 
L 3481 4863 
L 3481 0 
L 2906 0 
L 2906 525 
Q 2725 213 2448 61 
Q 2172 -91 1784 -91 
Q 1150 -91 751 415 
Q 353 922 353 1747 
Q 353 2572 751 3078 
Q 1150 3584 1784 3584 
Q 2172 3584 2448 3432 
Q 2725 3281 2906 2969 
z
M 947 1747 
Q 947 1113 1208 752 
Q 1469 391 1925 391 
Q 2381 391 2643 752 
Q 2906 1113 2906 1747 
Q 2906 2381 2643 2742 
Q 2381 3103 1925 3103 
Q 1469 3103 1208 2742 
Q 947 2381 947 1747 
z
" transform="scale(0.015625)"/>
      <path id="DejaVuSans-70" d="M 1159 525 
L 1159 -1331 
L 581 -1331 
L 581 3500 
L 1159 3500 
L 1159 2969 
Q 1341 3281 1617 3432 
Q 1894 3584 2278 3584 
Q 2916 3584 3314 3078 
Q 3713 2572 3713 1747 
Q 3713 922 3314 415 
Q 2916 -91 2278 -91 
Q 1894 -91 1617 61 
Q 1341 213 1159 525 
z
M 3116 1747 
Q 3116 2381 2855 2742 
Q 2594 3103 2138 3103 
Q 1681 3103 1420 2742 
Q 1159 2381 1159 1747 
Q 1159 1113 1420 752 
Q 1681 391 2138 391 
Q 2594 391 2855 752 
Q 3116 1113 3116 1747 
z
" transform="scale(0.015625)"/>
      <path id="DejaVuSans-68" d="M 3513 2113 
L 3513 0 
L 2938 0 
L 2938 2094 
Q 2938 2591 2744 2837 
Q 2550 3084 2163 3084 
Q 1697 3084 1428 2787 
Q 1159 2491 1159 1978 
L 1159 0 
L 581 0 
L 581 4863 
L 1159 4863 
L 1159 2956 
Q 1366 3272 1645 3428 
Q 1925 3584 2291 3584 
Q 2894 3584 3203 3211 
Q 3513 2838 3513 2113 
z
" transform="scale(0.015625)"/>
      <path id="DejaVuSans-2014" d="M 313 1978 
L 6088 1978 
L 6088 1528 
L 313 1528 
L 313 1978 
z
" transform="scale(0.015625)"/>
      <path id="DejaVuSans-2d" d="M 313 2009 
L 1997 2009 
L 1997 1497 
L 313 1497 
L 313 2009 
z
" transform="scale(0.015625)"/>
      <path id="DejaVuSans-6d" d="M 3328 2828 
Q 3544 3216 3844 3400 
Q 4144 3584 4550 3584 
Q 5097 3584 5394 3201 
Q 5691 2819 5691 2113 
L 5691 0 
L 5113 0 
L 5113 2094 
Q 5113 2597 4934 2840 
Q 4756 3084 4391 3084 
Q 3944 3084 3684 2787 
Q 3425 2491 3425 1978 
L 3425 0 
L 2847 0 
L 2847 2094 
Q 2847 2600 2669 2842 
Q 2491 3084 2119 3084 
Q 1678 3084 1418 2786 
Q 1159 2488 1159 1978 
L 1159 0 
L 581 0 
L 581 3500 
L 1159 3500 
L 1159 2956 
Q 1356 3278 1631 3431 
Q 1906 3584 2284 3584 
Q 2666 3584 2933 3390 
Q 3200 3197 3328 2828 
z
" transform="scale(0.015625)"/>
     </defs>
     <use xlink:href="#DejaVuSans-50"/>
     <use xlink:href="#DejaVuSans-65" transform="translate(56.677734 0)"/>
     <use xlink:href="#DejaVuSans-72" transform="translate(118.201172 0)"/>
     <use xlink:href="#DejaVuSans-73" transform="translate(159.314453 0)"/>
     <use xlink:href="#DejaVuSans-6f" transform="translate(211.414062 0)"/>
     <use xlink:href="#DejaVuSans-6e" transform="translate(272.595703 0)"/>
     <use xlink:href="#DejaVuSans-61" transform="translate(335.974609 0)"/>
     <use xlink:href="#DejaVuSans-53" transform="translate(397.253906 0)"/>
     <use xlink:href="#DejaVuSans-63" transform="translate(460.730469 0)"/>
     <use xlink:href="#DejaVuSans-6f" transform="translate(515.710938 0)"/>
     <use xlink:href="#DejaVuSans-72" transform="translate(576.892578 0)"/>
     <use xlink:href="#DejaVuSans-65" transform="translate(615.755859 0)"/>
     <use xlink:href="#DejaVuSans-20" transform="translate(677.279297 0)"/>
     <use xlink:href="#DejaVuSans-6f" transform="translate(709.066406 0)"/>
     <use xlink:href="#DejaVuSans-76" transform="translate(770.248047 0)"/>
     <use xlink:href="#DejaVuSans-65" transform="translate(829.427734 0)"/>
     <use xlink:href="#DejaVuSans-72" transform="translate(890.951172 0)"/>
     <use xlink:href="#DejaVuSans-20" transform="translate(932.064453 0)"/>
     <use xlink:href="#DejaVuSans-63" transform="translate(963.851562 0)"/>
     <use xlink:href="#DejaVuSans-6f" transform="translate(1018.832031 0)"/>
     <use xlink:href="#DejaVuSans-6e" transform="translate(1080.013672 0)"/>
     <use xlink:href="#DejaVuSans-76" transform="translate(1143.392578 0)"/>
     <use xlink:href="#DejaVuSans-65" transform="translate(1202.572266 0)"/>
     <use xlink:href="#DejaVuSans-72" transform="translate(1264.095703 0)"/>
     <use xlink:href="#DejaVuSans-73" transform="translate(1305.208984 0)"/>
     <use xlink:href="#DejaVuSans-61" transform="translate(1357.308594 0)"/>
     <use xlink:href="#DejaVuSans-74" transform="translate(1418.587891 0)"/>
     <use xlink:href="#DejaVuSans-69" transform="translate(1457.796875 0)"/>
     <use xlink:href="#DejaVuSans-6f" transform="translate(1485.580078 0)"/>
     <use xlink:href="#DejaVuSans-6e" transform="translate(1546.761719 0)"/>
     <use xlink:href="#DejaVuSans-20" transform="translate(1610.140625 0)"/>
     <use xlink:href="#DejaVuSans-64" transform="translate(1641.927734 0)"/>
     <use xlink:href="#DejaVuSans-65" transform="translate(1705.404297 0)"/>
     <use xlink:href="#DejaVuSans-70" transform="translate(1766.927734 0)"/>
     <use xlink:href="#DejaVuSans-74" transform="translate(1830.404297 0)"/>
     <use xlink:href="#DejaVuSans-68" transform="translate(1869.613281 0)"/>
     <use xlink:href="#DejaVuSans-20" transform="translate(1932.992188 0)"/>
     <use xlink:href="#DejaVuSans-2014" transform="translate(1964.779297 0)"/>
     <use xlink:href="#DejaVuSans-20" transform="translate(2064.779297 0)"/>
     <use xlink:href="#DejaVuSans-34" transform="translate(2096.566406 0)"/>
     <use xlink:href="#DejaVuSans-2d" transform="translate(2160.189453 0)"/>
     <use xlink:href="#DejaVuSans-63" transform="translate(2196.273438 0)"/>
     <use xlink:href="#DejaVuSans-6f" transform="translate(2251.253906 0)"/>
     <use xlink:href="#DejaVuSans-6e" transform="translate(2312.435547 0)"/>
     <use xlink:href="#DejaVuSans-64" transform="translate(2375.814453 0)"/>
     <use xlink:href="#DejaVuSans-69" transform="translate(2439.291016 0)"/>
     <use xlink:href="#DejaVuSans-74" transform="translate(2467.074219 0)"/>
     <use xlink:href="#DejaVuSans-69" transform="translate(2506.283203 0)"/>
     <use xlink:href="#DejaVuSans-6f" transform="translate(2534.066406 0)"/>
     <use xlink:href="#DejaVuSans-6e" transform="translate(2595.248047 0)"/>
     <use xlink:href="#DejaVuSans-20" transform="translate(2658.626953 0)"/>
     <use xlink:href="#DejaVuSans-63" transform="translate(2690.414062 0)"/>
     <use xlink:href="#DejaVuSans-6f" transform="translate(2745.394531 0)"/>
     <use xlink:href="#DejaVuSans-6d" transform="translate(2806.576172 0)"/>
     <use xlink:href="#DejaVuSans-70" transform="translate(2903.988281 0)"/>
     <use xlink:href="#DejaVuSans-61" transform="translate(2967.464844 0)"/>
     <use xlink:href="#DejaVuSans-72" transform="translate(3028.744141 0)"/>
     <use xlink:href="#DejaVuSans-69" transform="translate(3069.857422 0)"/>
     <use xlink:href="#DejaVuSans-73" transform="translate(3097.640625 0)"/>
     <use xlink:href="#DejaVuSans-6f" transform="translate(3149.740234 0)"/>
     <use xlink:href="#DejaVuSans-6e" transform="translate(3210.921875 0)"/>
    </g>
   </g>
   <g id="legend_1">
    <g id="patch_7">
     <path d="M 54.02 313.54 
L 258.480312 313.54 
Q 260.280312 313.54 260.280312 311.74 
L 260.280312 246.588438 
Q 260.280312 244.788438 258.480312 244.788438 
L 54.02 244.788438 
Q 52.22 244.788438 52.22 246.588438 
L 52.22 311.74 
Q 52.22 313.54 54.02 313.54 
z
" style="fill: #ffffff; opacity: 0.8; stroke: #cccccc; stroke-linejoin: miter"/>
    </g>
    <g id="line2d_40">
     <path d="M 55.82 252.077031 
L 64.82 252.077031 
L 73.82 252.077031 
" style="fill: none; stroke: #9e9e9e; stroke-width: 2; stroke-linecap: square"/>
     <g>
      <use xlink:href="#mc83cafc236" x="64.82" y="252.077031" style="fill: #9e9e9e; stroke: #9e9e9e"/>
     </g>
    </g>
    <g id="text_21">
     <!-- A: Fine-tuned, no SCI -->
     <g transform="translate(81.02 255.227031) scale(0.09 -0.09)">
      <defs>
       <path id="DejaVuSans-41" d="M 2188 4044 
L 1331 1722 
L 3047 1722 
L 2188 4044 
z
M 1831 4666 
L 2547 4666 
L 4325 0 
L 3669 0 
L 3244 1197 
L 1141 1197 
L 716 0 
L 50 0 
L 1831 4666 
z
" transform="scale(0.015625)"/>
       <path id="DejaVuSans-3a" d="M 750 794 
L 1409 794 
L 1409 0 
L 750 0 
L 750 794 
z
M 750 3309 
L 1409 3309 
L 1409 2516 
L 750 2516 
L 750 3309 
z
" transform="scale(0.015625)"/>
       <path id="DejaVuSans-46" d="M 628 4666 
L 3309 4666 
L 3309 4134 
L 1259 4134 
L 1259 2759 
L 3109 2759 
L 3109 2228 
L 1259 2228 
L 1259 0 
L 628 0 
L 628 4666 
z
" transform="scale(0.015625)"/>
       <path id="DejaVuSans-2c" d="M 750 794 
L 1409 794 
L 1409 256 
L 897 -744 
L 494 -744 
L 750 256 
L 750 794 
z
" transform="scale(0.015625)"/>
       <path id="DejaVuSans-43" d="M 4122 4306 
L 4122 3641 
Q 3803 3938 3442 4084 
Q 3081 4231 2675 4231 
Q 1875 4231 1450 3742 
Q 1025 3253 1025 2328 
Q 1025 1406 1450 917 
Q 1875 428 2675 428 
Q 3081 428 3442 575 
Q 3803 722 4122 1019 
L 4122 359 
Q 3791 134 3420 21 
Q 3050 -91 2638 -91 
Q 1578 -91 968 557 
Q 359 1206 359 2328 
Q 359 3453 968 4101 
Q 1578 4750 2638 4750 
Q 3056 4750 3426 4639 
Q 3797 4528 4122 4306 
z
" transform="scale(0.015625)"/>
       <path id="DejaVuSans-49" d="M 628 4666 
L 1259 4666 
L 1259 0 
L 628 0 
L 628 4666 
z
" transform="scale(0.015625)"/>
      </defs>
      <use xlink:href="#DejaVuSans-41"/>
      <use xlink:href="#DejaVuSans-3a" transform="translate(66.658203 0)"/>
      <use xlink:href="#DejaVuSans-20" transform="translate(100.349609 0)"/>
      <use xlink:href="#DejaVuSans-46" transform="translate(132.136719 0)"/>
      <use xlink:href="#DejaVuSans-69" transform="translate(182.40625 0)"/>
      <use xlink:href="#DejaVuSans-6e" transform="translate(210.189453 0)"/>
      <use xlink:href="#DejaVuSans-65" transform="translate(273.568359 0)"/>
      <use xlink:href="#DejaVuSans-2d" transform="translate(335.091797 0)"/>
      <use xlink:href="#DejaVuSans-74" transform="translate(371.175781 0)"/>
      <use xlink:href="#DejaVuSans-75" transform="translate(410.384766 0)"/>
      <use xlink:href="#DejaVuSans-6e" transform="translate(473.763672 0)"/>
      <use xlink:href="#DejaVuSans-65" transform="translate(537.142578 0)"/>
      <use xlink:href="#DejaVuSans-64" transform="translate(598.666016 0)"/>
      <use xlink:href="#DejaVuSans-2c" transform="translate(662.142578 0)"/>
      <use xlink:href="#DejaVuSans-20" transform="translate(693.929688 0)"/>
      <use xlink:href="#DejaVuSans-6e" transform="translate(725.716797 0)"/>
      <use xlink:href="#DejaVuSans-6f" transform="translate(789.095703 0)"/>
      <use xlink:href="#DejaVuSans-20" transform="translate(850.277344 0)"/>
      <use xlink:href="#DejaVuSans-53" transform="translate(882.064453 0)"/>
      <use xlink:href="#DejaVuSans-43" transform="translate(945.541016 0)"/>
      <use xlink:href="#DejaVuSans-49" transform="translate(1015.365234 0)"/>
     </g>
    </g>
    <g id="line2d_41">
     <path d="M 55.82 265.287344 
L 64.82 265.287344 
L 73.82 265.287344 
" style="fill: none; stroke: #2196f3; stroke-width: 2; stroke-linecap: square"/>
     <g>
      <use xlink:href="#med127f3281" x="64.82" y="265.287344" style="fill: #2196f3; stroke: #2196f3"/>
     </g>
    </g>
    <g id="text_22">
     <!-- B: Fine-tuned, baseline SCI -->
     <g transform="translate(81.02 268.437344) scale(0.09 -0.09)">
      <defs>
       <path id="DejaVuSans-42" d="M 1259 2228 
L 1259 519 
L 2272 519 
Q 2781 519 3026 730 
Q 3272 941 3272 1375 
Q 3272 1813 3026 2020 
Q 2781 2228 2272 2228 
L 1259 2228 
z
M 1259 4147 
L 1259 2741 
L 2194 2741 
Q 2656 2741 2882 2914 
Q 3109 3088 3109 3444 
Q 3109 3797 2882 3972 
Q 2656 4147 2194 4147 
L 1259 4147 
z
M 628 4666 
L 2241 4666 
Q 2963 4666 3353 4366 
Q 3744 4066 3744 3513 
Q 3744 3084 3544 2831 
Q 3344 2578 2956 2516 
Q 3422 2416 3680 2098 
Q 3938 1781 3938 1306 
Q 3938 681 3513 340 
Q 3088 0 2303 0 
L 628 0 
L 628 4666 
z
" transform="scale(0.015625)"/>
       <path id="DejaVuSans-6c" d="M 603 4863 
L 1178 4863 
L 1178 0 
L 603 0 
L 603 4863 
z
" transform="scale(0.015625)"/>
      </defs>
      <use xlink:href="#DejaVuSans-42"/>
      <use xlink:href="#DejaVuSans-3a" transform="translate(68.603516 0)"/>
      <use xlink:href="#DejaVuSans-20" transform="translate(102.294922 0)"/>
      <use xlink:href="#DejaVuSans-46" transform="translate(134.082031 0)"/>
      <use xlink:href="#DejaVuSans-69" transform="translate(184.351562 0)"/>
      <use xlink:href="#DejaVuSans-6e" transform="translate(212.134766 0)"/>
      <use xlink:href="#DejaVuSans-65" transform="translate(275.513672 0)"/>
      <use xlink:href="#DejaVuSans-2d" transform="translate(337.037109 0)"/>
      <use xlink:href="#DejaVuSans-74" transform="translate(373.121094 0)"/>
      <use xlink:href="#DejaVuSans-75" transform="translate(412.330078 0)"/>
      <use xlink:href="#DejaVuSans-6e" transform="translate(475.708984 0)"/>
      <use xlink:href="#DejaVuSans-65" transform="translate(539.087891 0)"/>
      <use xlink:href="#DejaVuSans-64" transform="translate(600.611328 0)"/>
      <use xlink:href="#DejaVuSans-2c" transform="translate(664.087891 0)"/>
      <use xlink:href="#DejaVuSans-20" transform="translate(695.875 0)"/>
      <use xlink:href="#DejaVuSans-62" transform="translate(727.662109 0)"/>
      <use xlink:href="#DejaVuSans-61" transform="translate(791.138672 0)"/>
      <use xlink:href="#DejaVuSans-73" transform="translate(852.417969 0)"/>
      <use xlink:href="#DejaVuSans-65" transform="translate(904.517578 0)"/>
      <use xlink:href="#DejaVuSans-6c" transform="translate(966.041016 0)"/>
      <use xlink:href="#DejaVuSans-69" transform="translate(993.824219 0)"/>
      <use xlink:href="#DejaVuSans-6e" transform="translate(1021.607422 0)"/>
      <use xlink:href="#DejaVuSans-65" transform="translate(1084.986328 0)"/>
      <use xlink:href="#DejaVuSans-20" transform="translate(1146.509766 0)"/>
      <use xlink:href="#DejaVuSans-53" transform="translate(1178.296875 0)"/>
      <use xlink:href="#DejaVuSans-43" transform="translate(1241.773438 0)"/>
      <use xlink:href="#DejaVuSans-49" transform="translate(1311.597656 0)"/>
     </g>
    </g>
    <g id="line2d_42">
     <path d="M 55.82 278.497656 
L 64.82 278.497656 
L 73.82 278.497656 
" style="fill: none; stroke: #4caf50; stroke-width: 2; stroke-linecap: square"/>
     <g>
      <use xlink:href="#m39283b306f" x="64.82" y="278.497656" style="fill: #4caf50; stroke: #4caf50"/>
     </g>
    </g>
    <g id="text_23">
     <!-- C: Fine-tuned, Combined SCI -->
     <g transform="translate(81.02 281.647656) scale(0.09 -0.09)">
      <use xlink:href="#DejaVuSans-43"/>
      <use xlink:href="#DejaVuSans-3a" transform="translate(69.824219 0)"/>
      <use xlink:href="#DejaVuSans-20" transform="translate(103.515625 0)"/>
      <use xlink:href="#DejaVuSans-46" transform="translate(135.302734 0)"/>
      <use xlink:href="#DejaVuSans-69" transform="translate(185.572266 0)"/>
      <use xlink:href="#DejaVuSans-6e" transform="translate(213.355469 0)"/>
      <use xlink:href="#DejaVuSans-65" transform="translate(276.734375 0)"/>
      <use xlink:href="#DejaVuSans-2d" transform="translate(338.257812 0)"/>
      <use xlink:href="#DejaVuSans-74" transform="translate(374.341797 0)"/>
      <use xlink:href="#DejaVuSans-75" transform="translate(413.550781 0)"/>
      <use xlink:href="#DejaVuSans-6e" transform="translate(476.929688 0)"/>
      <use xlink:href="#DejaVuSans-65" transform="translate(540.308594 0)"/>
      <use xlink:href="#DejaVuSans-64" transform="translate(601.832031 0)"/>
      <use xlink:href="#DejaVuSans-2c" transform="translate(665.308594 0)"/>
      <use xlink:href="#DejaVuSans-20" transform="translate(697.095703 0)"/>
      <use xlink:href="#DejaVuSans-43" transform="translate(728.882812 0)"/>
      <use xlink:href="#DejaVuSans-6f" transform="translate(798.707031 0)"/>
      <use xlink:href="#DejaVuSans-6d" transform="translate(859.888672 0)"/>
      <use xlink:href="#DejaVuSans-62" transform="translate(957.300781 0)"/>
      <use xlink:href="#DejaVuSans-69" transform="translate(1020.777344 0)"/>
      <use xlink:href="#DejaVuSans-6e" transform="translate(1048.560547 0)"/>
      <use xlink:href="#DejaVuSans-65" transform="translate(1111.939453 0)"/>
      <use xlink:href="#DejaVuSans-64" transform="translate(1173.462891 0)"/>
      <use xlink:href="#DejaVuSans-20" transform="translate(1236.939453 0)"/>
      <use xlink:href="#DejaVuSans-53" transform="translate(1268.726562 0)"/>
      <use xlink:href="#DejaVuSans-43" transform="translate(1332.203125 0)"/>
      <use xlink:href="#DejaVuSans-49" transform="translate(1402.027344 0)"/>
     </g>
    </g>
    <g id="line2d_43">
     <path d="M 55.82 291.707969 
L 64.82 291.707969 
L 73.82 291.707969 
" style="fill: none; stroke: #ff9800; stroke-width: 2; stroke-linecap: square"/>
     <g>
      <use xlink:href="#m4cc2d5256b" x="64.82" y="291.707969" style="fill: #ff9800; stroke: #ff9800"/>
     </g>
    </g>
    <g id="text_24">
     <!-- D: Base model, Combined SCI (control) -->
     <g transform="translate(81.02 294.857969) scale(0.09 -0.09)">
      <defs>
       <path id="DejaVuSans-44" d="M 1259 4147 
L 1259 519 
L 2022 519 
Q 2988 519 3436 956 
Q 3884 1394 3884 2338 
Q 3884 3275 3436 3711 
Q 2988 4147 2022 4147 
L 1259 4147 
z
M 628 4666 
L 1925 4666 
Q 3281 4666 3915 4102 
Q 4550 3538 4550 2338 
Q 4550 1131 3912 565 
Q 3275 0 1925 0 
L 628 0 
L 628 4666 
z
" transform="scale(0.015625)"/>
       <path id="DejaVuSans-28" d="M 1984 4856 
Q 1566 4138 1362 3434 
Q 1159 2731 1159 2009 
Q 1159 1288 1364 580 
Q 1569 -128 1984 -844 
L 1484 -844 
Q 1016 -109 783 600 
Q 550 1309 550 2009 
Q 550 2706 781 3412 
Q 1013 4119 1484 4856 
L 1984 4856 
z
" transform="scale(0.015625)"/>
       <path id="DejaVuSans-29" d="M 513 4856 
L 1013 4856 
Q 1481 4119 1714 3412 
Q 1947 2706 1947 2009 
Q 1947 1309 1714 600 
Q 1481 -109 1013 -844 
L 513 -844 
Q 928 -128 1133 580 
Q 1338 1288 1338 2009 
Q 1338 2731 1133 3434 
Q 928 4138 513 4856 
z
" transform="scale(0.015625)"/>
      </defs>
      <use xlink:href="#DejaVuSans-44"/>
      <use xlink:href="#DejaVuSans-3a" transform="translate(77.001953 0)"/>
      <use xlink:href="#DejaVuSans-20" transform="translate(110.693359 0)"/>
      <use xlink:href="#DejaVuSans-42" transform="translate(142.480469 0)"/>
      <use xlink:href="#DejaVuSans-61" transform="translate(211.083984 0)"/>
      <use xlink:href="#DejaVuSans-73" transform="translate(272.363281 0)"/>
      <use xlink:href="#DejaVuSans-65" transform="translate(324.462891 0)"/>
      <use xlink:href="#DejaVuSans-20" transform="translate(385.986328 0)"/>
      <use xlink:href="#DejaVuSans-6d" transform="translate(417.773438 0)"/>
      <use xlink:href="#DejaVuSans-6f" transform="translate(515.185547 0)"/>
      <use xlink:href="#DejaVuSans-64" transform="translate(576.367188 0)"/>
      <use xlink:href="#DejaVuSans-65" transform="translate(639.84375 0)"/>
      <use xlink:href="#DejaVuSans-6c" transform="translate(701.367188 0)"/>
      <use xlink:href="#DejaVuSans-2c" transform="translate(729.150391 0)"/>
      <use xlink:href="#DejaVuSans-20" transform="translate(760.9375 0)"/>
      <use xlink:href="#DejaVuSans-43" transform="translate(792.724609 0)"/>
      <use xlink:href="#DejaVuSans-6f" transform="translate(862.548828 0)"/>
      <use xlink:href="#DejaVuSans-6d" transform="translate(923.730469 0)"/>
      <use xlink:href="#DejaVuSans-62" transform="translate(1021.142578 0)"/>
      <use xlink:href="#DejaVuSans-69" transform="translate(1084.619141 0)"/>
      <use xlink:href="#DejaVuSans-6e" transform="translate(1112.402344 0)"/>
      <use xlink:href="#DejaVuSans-65" transform="translate(1175.78125 0)"/>
      <use xlink:href="#DejaVuSans-64" transform="translate(1237.304688 0)"/>
      <use xlink:href="#DejaVuSans-20" transform="translate(1300.78125 0)"/>
      <use xlink:href="#DejaVuSans-53" transform="translate(1332.568359 0)"/>
      <use xlink:href="#DejaVuSans-43" transform="translate(1396.044922 0)"/>
      <use xlink:href="#DejaVuSans-49" transform="translate(1465.869141 0)"/>
      <use xlink:href="#DejaVuSans-20" transform="translate(1495.361328 0)"/>
      <use xlink:href="#DejaVuSans-28" transform="translate(1527.148438 0)"/>
      <use xlink:href="#DejaVuSans-63" transform="translate(1566.162109 0)"/>
      <use xlink:href="#DejaVuSans-6f" transform="translate(1621.142578 0)"/>
      <use xlink:href="#DejaVuSans-6e" transform="translate(1682.324219 0)"/>
      <use xlink:href="#DejaVuSans-74" transform="translate(1745.703125 0)"/>
      <use xlink:href="#DejaVuSans-72" transform="translate(1784.912109 0)"/>
      <use xlink:href="#DejaVuSans-6f" transform="translate(1823.775391 0)"/>
      <use xlink:href="#DejaVuSans-6c" transform="translate(1884.957031 0)"/>
      <use xlink:href="#DejaVuSans-29" transform="translate(1912.740234 0)"/>
     </g>
    </g>
    <g id="line2d_44">
     <path d="M 55.82 304.918281 
L 64.82 304.918281 
L 73.82 304.918281 
" style="fill: none; stroke-dasharray: 5.55,2.4; stroke-dashoffset: 0; stroke: #000000; stroke-opacity: 0.4; stroke-width: 1.5"/>
    </g>
    <g id="text_25">
     <!-- Pass threshold (3.5) -->
     <g transform="translate(81.02 308.068281) scale(0.09 -0.09)">
      <use xlink:href="#DejaVuSans-50"/>
      <use xlink:href="#DejaVuSans-61" transform="translate(55.802734 0)"/>
      <use xlink:href="#DejaVuSans-73" transform="translate(117.082031 0)"/>
      <use xlink:href="#DejaVuSans-73" transform="translate(169.181641 0)"/>
      <use xlink:href="#DejaVuSans-20" transform="translate(221.28125 0)"/>
      <use xlink:href="#DejaVuSans-74" transform="translate(253.068359 0)"/>
      <use xlink:href="#DejaVuSans-68" transform="translate(292.277344 0)"/>
      <use xlink:href="#DejaVuSans-72" transform="translate(355.65625 0)"/>
      <use xlink:href="#DejaVuSans-65" transform="translate(394.519531 0)"/>
      <use xlink:href="#DejaVuSans-73" transform="translate(456.042969 0)"/>
      <use xlink:href="#DejaVuSans-68" transform="translate(508.142578 0)"/>
      <use xlink:href="#DejaVuSans-6f" transform="translate(571.521484 0)"/>
      <use xlink:href="#DejaVuSans-6c" transform="translate(632.703125 0)"/>
      <use xlink:href="#DejaVuSans-64" transform="translate(660.486328 0)"/>
      <use xlink:href="#DejaVuSans-20" transform="translate(723.962891 0)"/>
      <use xlink:href="#DejaVuSans-28" transform="translate(755.75 0)"/>
      <use xlink:href="#DejaVuSans-33" transform="translate(794.763672 0)"/>
      <use xlink:href="#DejaVuSans-2e" transform="translate(858.386719 0)"/>
      <use xlink:href="#DejaVuSans-35" transform="translate(890.173828 0)"/>
      <use xlink:href="#DejaVuSans-29" transform="translate(953.796875 0)"/>
     </g>
    </g>
   </g>
  </g>
 </g>
 <defs>
  <clipPath id="p8d9953076b">
   <rect x="47.72" y="26.88" width="553.48" height="291.16"/>
  </clipPath>
 </defs>
</svg>
